<?xml version="1.0" encoding="UTF-8"?>
<svg width="639px" height="64px" viewBox="0 0 639 64" version="1.1" xmlns="http://www.w3.org/2000/svg" xmlns:xlink="http://www.w3.org/1999/xlink">
    <!-- Generator: Sketch 63 (92445) - https://sketch.com -->
    <title>Group 2</title>
    <desc>Created with Sketch.</desc>
    <g id="Page-1" stroke="none" stroke-width="1" fill="none" fill-rule="evenodd">
        <g id="Slide-9" transform="translate(-101.000000, -263.000000)">
            <g id="Group-2" transform="translate(103.000000, 269.000000)">
                <g id="Group" transform="translate(0.000000, 19.000000)">
                    <rect id="Rectangle" stroke="#FAE0D0" stroke-width="3" fill-opacity="0.3" fill="#FAE0D0" x="0" y="1" width="80" height="36" rx="4"></rect>
                    <text id="render" opacity="0.9" font-family="NeueHaasUnicaW1G-Bold, Neue Haas Unica W1G" font-size="16" font-weight="bold" line-spacing="13" letter-spacing="0.195555556" fill="#000000">
                        <tspan x="6.48533333" y="14.144">render</tspan>
                    </text>
                </g>
                <g id="Group" transform="translate(278.000000, 19.000000)">
                    <rect id="Rectangle" stroke="#FAE0D0" stroke-width="3" fill-opacity="0.3" fill="#FAE0D0" x="0" y="1" width="80" height="36" rx="4"></rect>
                    <text id="render" opacity="0.9" font-family="NeueHaasUnicaW1G-Bold, Neue Haas Unica W1G" font-size="16" font-weight="bold" line-spacing="13" letter-spacing="0.195555556" fill="#000000">
                        <tspan x="6.48533333" y="14.144">render</tspan>
                    </text>
                </g>
                <g id="Group" transform="translate(93.000000, 19.000000)">
                    <rect id="Rectangle" stroke="#F064AF" stroke-width="2" x="0" y="1" width="80" height="36" rx="4"></rect>
                    <text id="mount" opacity="0.9" font-family="NeueHaasUnicaW1G-Medium, Neue Haas Unica W1G" font-size="16" font-weight="400" line-spacing="13" letter-spacing="0.195555556" fill="#000000">
                        <tspan x="7.79911111" y="14.32">mount</tspan>
                    </text>
                </g>
                <g id="Group" transform="translate(185.000000, 19.000000)">
                    <rect id="Rectangle" stroke="#F064AF" stroke-width="2" x="0" y="1" width="80" height="36" rx="4"></rect>
                    <text id="commit-mount" opacity="0.9" font-family="NeueHaasUnicaW1G-Medium, Neue Haas Unica W1G" font-size="16" font-weight="400" line-spacing="13" letter-spacing="0.195555556" fill="#000000">
                        <tspan x="3.49333333" y="14.32">commit </tspan>
                        <tspan x="7.79911111" y="27.32">mount</tspan>
                    </text>
                </g>
                <g id="Group" transform="translate(371.000000, 19.000000)">
                    <rect id="Rectangle" stroke="#F064AF" stroke-width="2" x="0" y="1" width="80" height="36" rx="4"></rect>
                    <text id="update" opacity="0.9" font-family="NeueHaasUnicaW1G-Medium, Neue Haas Unica W1G" font-size="16" font-weight="400" line-spacing="13" letter-spacing="0.195555556" fill="#000000">
                        <tspan x="6.00533333" y="14.32">update</tspan>
                    </text>
                </g>
                <g id="Group" transform="translate(556.000000, 19.000000)">
                    <rect id="Rectangle" stroke="#F064AF" stroke-width="2" x="0" y="1" width="80" height="36" rx="4"></rect>
                    <text id="unmount" opacity="0.9" font-family="NeueHaasUnicaW1G-Medium, Neue Haas Unica W1G" font-size="16" font-weight="400" line-spacing="13" letter-spacing="0.195555556" fill="#000000">
                        <tspan x="0" y="19">unmount</tspan>
                    </text>
                </g>
                <g id="Group" transform="translate(463.000000, 19.000000)">
                    <rect id="Rectangle" stroke="#F064AF" stroke-width="2" x="0" y="1" width="80" height="36" rx="4"></rect>
                    <text id="commit-update" opacity="0.9" font-family="NeueHaasUnicaW1G-Medium, Neue Haas Unica W1G" font-size="16" font-weight="400" line-spacing="13" letter-spacing="0.195555556" fill="#000000">
                        <tspan x="3.49333333" y="14.32">commit </tspan>
                        <tspan x="6.00533333" y="27.32">update</tspan>
                    </text>
                </g>
                <path id="Path-2" d="M278,-6 C278.512836,-6 278.935507,-5.61395981 278.993272,-5.11662113 L279,-5 L279,0 L283,0 C283.552285,0 284,0.44771525 284,1 C284,1.51283584 283.61396,1.93550716 283.116621,1.99327227 L283,2 L279,2 L279,7 C279,7.55228475 278.552285,8 278,8 C277.487164,8 277.064493,7.61395981 277.006728,7.11662113 L277,7 L277,-5 C277,-5.55228475 277.447715,-6 278,-6 Z M530.612893,-6 C530.742541,-6 530.870408,-5.96981468 530.986368,-5.91183453 L530.986368,-5.91183453 L543.315954,0.252958649 C543.728483,0.459223163 543.895694,0.960854444 543.689429,1.37338347 C543.608621,1.53500118 543.477572,1.66604956 543.315954,1.74685841 L543.315954,1.74685841 L530.986368,7.91165159 C530.573839,8.1179161 530.072208,7.95070568 529.865943,7.53817665 C529.807963,7.42221634 529.777778,7.29434927 529.777778,7.16470171 L529.777778,7.16470171 L529.777778,-5.16488464 C529.777778,-5.62610612 530.151672,-6 530.612893,-6 Z M294,0 C294.552285,0 295,0.44771525 295,1 C295,1.51283584 294.61396,1.93550716 294.116621,1.99327227 L294,2 L289,2 C288.447715,2 288,1.55228475 288,1 C288,0.487164161 288.38604,0.0644928393 288.883379,0.00672773133 L289,0 L294,0 Z M305,0 C305.552285,0 306,0.44771525 306,1 C306,1.51283584 305.61396,1.93550716 305.116621,1.99327227 L305,2 L300,2 C299.447715,2 299,1.55228475 299,1 C299,0.487164161 299.38604,0.0644928393 299.883379,0.00672773133 L300,0 L305,0 Z M316,0 C316.552285,0 317,0.44771525 317,1 C317,1.51283584 316.61396,1.93550716 316.116621,1.99327227 L316,2 L311,2 C310.447715,2 310,1.55228475 310,1 C310,0.487164161 310.38604,0.0644928393 310.883379,0.00672773133 L311,0 L316,0 Z M327,0 C327.552285,0 328,0.44771525 328,1 C328,1.51283584 327.61396,1.93550716 327.116621,1.99327227 L327,2 L322,2 C321.447715,2 321,1.55228475 321,1 C321,0.487164161 321.38604,0.0644928393 321.883379,0.00672773133 L322,0 L327,0 Z M338,0 C338.552285,0 339,0.44771525 339,1 C339,1.51283584 338.61396,1.93550716 338.116621,1.99327227 L338,2 L333,2 C332.447715,2 332,1.55228475 332,1 C332,0.487164161 332.38604,0.0644928393 332.883379,0.00672773133 L333,0 L338,0 Z M349,0 C349.552285,0 350,0.44771525 350,1 C350,1.51283584 349.61396,1.93550716 349.116621,1.99327227 L349,2 L344,2 C343.447715,2 343,1.55228475 343,1 C343,0.487164161 343.38604,0.0644928393 343.883379,0.00672773133 L344,0 L349,0 Z M360,0 C360.552285,0 361,0.44771525 361,1 C361,1.51283584 360.61396,1.93550716 360.116621,1.99327227 L360,2 L355,2 C354.447715,2 354,1.55228475 354,1 C354,0.487164161 354.38604,0.0644928393 354.883379,0.00672773133 L355,0 L360,0 Z M371,0 C371.552285,0 372,0.44771525 372,1 C372,1.51283584 371.61396,1.93550716 371.116621,1.99327227 L371,2 L366,2 C365.447715,2 365,1.55228475 365,1 C365,0.487164161 365.38604,0.0644928393 365.883379,0.00672773133 L366,0 L371,0 Z M382,0 C382.552285,0 383,0.44771525 383,1 C383,1.51283584 382.61396,1.93550716 382.116621,1.99327227 L382,2 L377,2 C376.447715,2 376,1.55228475 376,1 C376,0.487164161 376.38604,0.0644928393 376.883379,0.00672773133 L377,0 L382,0 Z M393,0 C393.552285,0 394,0.44771525 394,1 C394,1.51283584 393.61396,1.93550716 393.116621,1.99327227 L393,2 L388,2 C387.447715,2 387,1.55228475 387,1 C387,0.487164161 387.38604,0.0644928393 387.883379,0.00672773133 L388,0 L393,0 Z M404,0 C404.552285,0 405,0.44771525 405,1 C405,1.51283584 404.61396,1.93550716 404.116621,1.99327227 L404,2 L399,2 C398.447715,2 398,1.55228475 398,1 C398,0.487164161 398.38604,0.0644928393 398.883379,0.00672773133 L399,0 L404,0 Z M415,0 C415.552285,0 416,0.44771525 416,1 C416,1.51283584 415.61396,1.93550716 415.116621,1.99327227 L415,2 L410,2 C409.447715,2 409,1.55228475 409,1 C409,0.487164161 409.38604,0.0644928393 409.883379,0.00672773133 L410,0 L415,0 Z M426,0 C426.552285,0 427,0.44771525 427,1 C427,1.51283584 426.61396,1.93550716 426.116621,1.99327227 L426,2 L421,2 C420.447715,2 420,1.55228475 420,1 C420,0.487164161 420.38604,0.0644928393 420.883379,0.00672773133 L421,0 L426,0 Z M437,0 C437.552285,0 438,0.44771525 438,1 C438,1.51283584 437.61396,1.93550716 437.116621,1.99327227 L437,2 L432,2 C431.447715,2 431,1.55228475 431,1 C431,0.487164161 431.38604,0.0644928393 431.883379,0.00672773133 L432,0 L437,0 Z M448,0 C448.552285,0 449,0.44771525 449,1 C449,1.51283584 448.61396,1.93550716 448.116621,1.99327227 L448,2 L443,2 C442.447715,2 442,1.55228475 442,1 C442,0.487164161 442.38604,0.0644928393 442.883379,0.00672773133 L443,0 L448,0 Z M459,0 C459.552285,0 460,0.44771525 460,1 C460,1.51283584 459.61396,1.93550716 459.116621,1.99327227 L459,2 L454,2 C453.447715,2 453,1.55228475 453,1 C453,0.487164161 453.38604,0.0644928393 453.883379,0.00672773133 L454,0 L459,0 Z M470,0 C470.552285,0 471,0.44771525 471,1 C471,1.51283584 470.61396,1.93550716 470.116621,1.99327227 L470,2 L465,2 C464.447715,2 464,1.55228475 464,1 C464,0.487164161 464.38604,0.0644928393 464.883379,0.00672773133 L465,0 L470,0 Z M481,0 C481.552285,0 482,0.44771525 482,1 C482,1.51283584 481.61396,1.93550716 481.116621,1.99327227 L481,2 L476,2 C475.447715,2 475,1.55228475 475,1 C475,0.487164161 475.38604,0.0644928393 475.883379,0.00672773133 L476,0 L481,0 Z M492,0 C492.552285,0 493,0.44771525 493,1 C493,1.51283584 492.61396,1.93550716 492.116621,1.99327227 L492,2 L487,2 C486.447715,2 486,1.55228475 486,1 C486,0.487164161 486.38604,0.0644928393 486.883379,0.00672773133 L487,0 L492,0 Z M503,0 C503.552285,0 504,0.44771525 504,1 C504,1.51283584 503.61396,1.93550716 503.116621,1.99327227 L503,2 L498,2 C497.447715,2 497,1.55228475 497,1 C497,0.487164161 497.38604,0.0644928393 497.883379,0.00672773133 L498,0 L503,0 Z M514,0 C514.552285,0 515,0.44771525 515,1 C515,1.51283584 514.61396,1.93550716 514.116621,1.99327227 L514,2 L509,2 C508.447715,2 508,1.55228475 508,1 C508,0.487164161 508.38604,0.0644928393 508.883379,0.00672773133 L509,0 L514,0 Z M525,0 C525.552285,0 526,0.44771525 526,1 C526,1.51283584 525.61396,1.93550716 525.116621,1.99327227 L525,2 L520,2 C519.447715,2 519,1.55228475 519,1 C519,0.487164161 519.38604,0.0644928393 519.883379,0.00672773133 L520,0 L525,0 Z" fill="#D22A80" fill-rule="nonzero"></path>
                <path id="Path-2" d="M0,-6 C0.512835839,-6 0.935507161,-5.61395981 0.993272269,-5.11662113 L1,-5 L1,0 L5,0 C5.55228475,0 6,0.44771525 6,1 C6,1.51283584 5.61395981,1.93550716 5.11662113,1.99327227 L5,2 L1,2 L1,7 C1,7.55228475 0.55228475,8 0,8 C-0.512835839,8 -0.935507161,7.61395981 -0.993272269,7.11662113 L-1,7 L-1,-5 C-1,-5.55228475 -0.55228475,-6 0,-6 Z M252.612893,-6 C252.742541,-6 252.870408,-5.96981468 252.986368,-5.91183453 L252.986368,-5.91183453 L265.315954,0.252958649 C265.728483,0.459223163 265.895694,0.960854444 265.689429,1.37338347 C265.608621,1.53500118 265.477572,1.66604956 265.315954,1.74685841 L265.315954,1.74685841 L252.986368,7.91165159 C252.573839,8.1179161 252.072208,7.95070568 251.865943,7.53817665 C251.807963,7.42221634 251.777778,7.29434927 251.777778,7.16470171 L251.777778,7.16470171 L251.777778,-5.16488464 C251.777778,-5.62610612 252.151672,-6 252.612893,-6 Z M16,0 C16.5522847,0 17,0.44771525 17,1 C17,1.51283584 16.6139598,1.93550716 16.1166211,1.99327227 L16,2 L11,2 C10.4477153,2 10,1.55228475 10,1 C10,0.487164161 10.3860402,0.0644928393 10.8833789,0.00672773133 L11,0 L16,0 Z M27,0 C27.5522847,0 28,0.44771525 28,1 C28,1.51283584 27.6139598,1.93550716 27.1166211,1.99327227 L27,2 L22,2 C21.4477153,2 21,1.55228475 21,1 C21,0.487164161 21.3860402,0.0644928393 21.8833789,0.00672773133 L22,0 L27,0 Z M38,0 C38.5522847,0 39,0.44771525 39,1 C39,1.51283584 38.6139598,1.93550716 38.1166211,1.99327227 L38,2 L33,2 C32.4477153,2 32,1.55228475 32,1 C32,0.487164161 32.3860402,0.0644928393 32.8833789,0.00672773133 L33,0 L38,0 Z M49,0 C49.5522847,0 50,0.44771525 50,1 C50,1.51283584 49.6139598,1.93550716 49.1166211,1.99327227 L49,2 L44,2 C43.4477153,2 43,1.55228475 43,1 C43,0.487164161 43.3860402,0.0644928393 43.8833789,0.00672773133 L44,0 L49,0 Z M60,0 C60.5522847,0 61,0.44771525 61,1 C61,1.51283584 60.6139598,1.93550716 60.1166211,1.99327227 L60,2 L55,2 C54.4477153,2 54,1.55228475 54,1 C54,0.487164161 54.3860402,0.0644928393 54.8833789,0.00672773133 L55,0 L60,0 Z M71,0 C71.5522847,0 72,0.44771525 72,1 C72,1.51283584 71.6139598,1.93550716 71.1166211,1.99327227 L71,2 L66,2 C65.4477153,2 65,1.55228475 65,1 C65,0.487164161 65.3860402,0.0644928393 65.8833789,0.00672773133 L66,0 L71,0 Z M82,0 C82.5522847,0 83,0.44771525 83,1 C83,1.51283584 82.6139598,1.93550716 82.1166211,1.99327227 L82,2 L77,2 C76.4477153,2 76,1.55228475 76,1 C76,0.487164161 76.3860402,0.0644928393 76.8833789,0.00672773133 L77,0 L82,0 Z M93,0 C93.5522847,0 94,0.44771525 94,1 C94,1.51283584 93.6139598,1.93550716 93.1166211,1.99327227 L93,2 L88,2 C87.4477153,2 87,1.55228475 87,1 C87,0.487164161 87.3860402,0.0644928393 87.8833789,0.00672773133 L88,0 L93,0 Z M104,0 C104.552285,0 105,0.44771525 105,1 C105,1.51283584 104.61396,1.93550716 104.116621,1.99327227 L104,2 L99,2 C98.4477153,2 98,1.55228475 98,1 C98,0.487164161 98.3860402,0.0644928393 98.8833789,0.00672773133 L99,0 L104,0 Z M115,0 C115.552285,0 116,0.44771525 116,1 C116,1.51283584 115.61396,1.93550716 115.116621,1.99327227 L115,2 L110,2 C109.447715,2 109,1.55228475 109,1 C109,0.487164161 109.38604,0.0644928393 109.883379,0.00672773133 L110,0 L115,0 Z M126,0 C126.552285,0 127,0.44771525 127,1 C127,1.51283584 126.61396,1.93550716 126.116621,1.99327227 L126,2 L121,2 C120.447715,2 120,1.55228475 120,1 C120,0.487164161 120.38604,0.0644928393 120.883379,0.00672773133 L121,0 L126,0 Z M137,0 C137.552285,0 138,0.44771525 138,1 C138,1.51283584 137.61396,1.93550716 137.116621,1.99327227 L137,2 L132,2 C131.447715,2 131,1.55228475 131,1 C131,0.487164161 131.38604,0.0644928393 131.883379,0.00672773133 L132,0 L137,0 Z M148,0 C148.552285,0 149,0.44771525 149,1 C149,1.51283584 148.61396,1.93550716 148.116621,1.99327227 L148,2 L143,2 C142.447715,2 142,1.55228475 142,1 C142,0.487164161 142.38604,0.0644928393 142.883379,0.00672773133 L143,0 L148,0 Z M159,0 C159.552285,0 160,0.44771525 160,1 C160,1.51283584 159.61396,1.93550716 159.116621,1.99327227 L159,2 L154,2 C153.447715,2 153,1.55228475 153,1 C153,0.487164161 153.38604,0.0644928393 153.883379,0.00672773133 L154,0 L159,0 Z M170,0 C170.552285,0 171,0.44771525 171,1 C171,1.51283584 170.61396,1.93550716 170.116621,1.99327227 L170,2 L165,2 C164.447715,2 164,1.55228475 164,1 C164,0.487164161 164.38604,0.0644928393 164.883379,0.00672773133 L165,0 L170,0 Z M181,0 C181.552285,0 182,0.44771525 182,1 C182,1.51283584 181.61396,1.93550716 181.116621,1.99327227 L181,2 L176,2 C175.447715,2 175,1.55228475 175,1 C175,0.487164161 175.38604,0.0644928393 175.883379,0.00672773133 L176,0 L181,0 Z M192,0 C192.552285,0 193,0.44771525 193,1 C193,1.51283584 192.61396,1.93550716 192.116621,1.99327227 L192,2 L187,2 C186.447715,2 186,1.55228475 186,1 C186,0.487164161 186.38604,0.0644928393 186.883379,0.00672773133 L187,0 L192,0 Z M203,0 C203.552285,0 204,0.44771525 204,1 C204,1.51283584 203.61396,1.93550716 203.116621,1.99327227 L203,2 L198,2 C197.447715,2 197,1.55228475 197,1 C197,0.487164161 197.38604,0.0644928393 197.883379,0.00672773133 L198,0 L203,0 Z M214,0 C214.552285,0 215,0.44771525 215,1 C215,1.51283584 214.61396,1.93550716 214.116621,1.99327227 L214,2 L209,2 C208.447715,2 208,1.55228475 208,1 C208,0.487164161 208.38604,0.0644928393 208.883379,0.00672773133 L209,0 L214,0 Z M225,0 C225.552285,0 226,0.44771525 226,1 C226,1.51283584 225.61396,1.93550716 225.116621,1.99327227 L225,2 L220,2 C219.447715,2 219,1.55228475 219,1 C219,0.487164161 219.38604,0.0644928393 219.883379,0.00672773133 L220,0 L225,0 Z M236,0 C236.552285,0 237,0.44771525 237,1 C237,1.51283584 236.61396,1.93550716 236.116621,1.99327227 L236,2 L231,2 C230.447715,2 230,1.55228475 230,1 C230,0.487164161 230.38604,0.0644928393 230.883379,0.00672773133 L231,0 L236,0 Z M247,0 C247.552285,0 248,0.44771525 248,1 C248,1.51283584 247.61396,1.93550716 247.116621,1.99327227 L247,2 L242,2 C241.447715,2 241,1.55228475 241,1 C241,0.487164161 241.38604,0.0644928393 241.883379,0.00672773133 L242,0 L247,0 Z" fill="#D22A80" fill-rule="nonzero"></path>
                <path id="Path-2" d="M556,-6 C556.512836,-6 556.935507,-5.61395981 556.993272,-5.11662113 L557,-5 L557,0 L561,0 C561.552285,0 562,0.44771525 562,1 C562,1.51283584 561.61396,1.93550716 561.116621,1.99327227 L561,2 L557,2 L557,7 C557,7.55228475 556.552285,8 556,8 C555.487164,8 555.064493,7.61395981 555.006728,7.11662113 L555,7 L555,-5 C555,-5.55228475 555.447715,-6 556,-6 Z M623.612893,-6 C623.742541,-6 623.870408,-5.96981468 623.986368,-5.91183453 L623.986368,-5.91183453 L636.315954,0.252958649 C636.728483,0.459223163 636.895694,0.960854444 636.689429,1.37338347 C636.608621,1.53500118 636.477572,1.66604956 636.315954,1.74685841 L636.315954,1.74685841 L623.986368,7.91165159 C623.573839,8.1179161 623.072208,7.95070568 622.865943,7.53817665 C622.807963,7.42221634 622.777778,7.29434927 622.777778,7.16470171 L622.777778,7.16470171 L622.777,2 L622,2 C621.447715,2 621,1.55228475 621,1 C621,0.487164161 621.38604,0.0644928393 621.883379,0.00672773133 L622,0 L622.777,0 L622.777778,-5.16488464 C622.777778,-5.59062754 623.096362,-5.94196113 623.508138,-5.99349327 Z M572,0 C572.552285,0 573,0.44771525 573,1 C573,1.51283584 572.61396,1.93550716 572.116621,1.99327227 L572,2 L567,2 C566.447715,2 566,1.55228475 566,1 C566,0.487164161 566.38604,0.0644928393 566.883379,0.00672773133 L567,0 L572,0 Z M583,0 C583.552285,0 584,0.44771525 584,1 C584,1.51283584 583.61396,1.93550716 583.116621,1.99327227 L583,2 L578,2 C577.447715,2 577,1.55228475 577,1 C577,0.487164161 577.38604,0.0644928393 577.883379,0.00672773133 L578,0 L583,0 Z M594,0 C594.552285,0 595,0.44771525 595,1 C595,1.51283584 594.61396,1.93550716 594.116621,1.99327227 L594,2 L589,2 C588.447715,2 588,1.55228475 588,1 C588,0.487164161 588.38604,0.0644928393 588.883379,0.00672773133 L589,0 L594,0 Z M605,0 C605.552285,0 606,0.44771525 606,1 C606,1.51283584 605.61396,1.93550716 605.116621,1.99327227 L605,2 L600,2 C599.447715,2 599,1.55228475 599,1 C599,0.487164161 599.38604,0.0644928393 599.883379,0.00672773133 L600,0 L605,0 Z M616,0 C616.552285,0 617,0.44771525 617,1 C617,1.51283584 616.61396,1.93550716 616.116621,1.99327227 L616,2 L611,2 C610.447715,2 610,1.55228475 610,1 C610,0.487164161 610.38604,0.0644928393 610.883379,0.00672773133 L611,0 L616,0 Z" fill="#D22A80" fill-rule="nonzero"></path>
            </g>
        </g>
    </g>
</svg>