<?xml version="1.0" encoding="UTF-8"?>
<svg width="319px" height="116px" viewBox="0 0 319 116" version="1.1" xmlns="http://www.w3.org/2000/svg" xmlns:xlink="http://www.w3.org/1999/xlink">
    <!-- Generator: Sketch 63 (92445) - https://sketch.com -->
    <title>Group 2</title>
    <desc>Created with Sketch.</desc>
    <g id="Page-1" stroke="none" stroke-width="1" fill="none" fill-rule="evenodd">
        <g id="Slide-9" transform="translate(-243.000000, -239.000000)">
            <g id="Group-2" transform="translate(242.000000, 233.000000)">
                <g id="Group">
                    <text id="render" font-family="iAWriterQuattroS-Bold, iA Writer Quattro S" font-size="15" font-weight="bold" letter-spacing="0.236842" fill="#F0647D">
                        <tspan x="43.039474" y="15">render</tspan>
                    </text>
                    <path id="Path-2" d="M2,23 C2.51283584,23 2.93550716,23.3860402 2.99327227,23.8833789 L3,24 L3,29 L7,29 C7.55228475,29 8,29.4477153 8,30 C8,30.5128358 7.61395981,30.9355072 7.11662113,30.9932723 L7,31 L3,31 L3,36 C3,36.5522847 2.55228475,37 2,37 C1.48716416,37 1.06449284,36.6139598 1.00672773,36.1166211 L1,36 L1,24 C1,23.4477153 1.44771525,23 2,23 Z M124.612893,23 C124.742541,23 124.870408,23.0301853 124.986368,23.0881655 L124.986368,23.0881655 L137.315954,29.2529586 C137.728483,29.4592232 137.895694,29.9608544 137.689429,30.3733835 C137.608621,30.5350012 137.477572,30.6660496 137.315954,30.7468584 L137.315954,30.7468584 L124.986368,36.9116516 C124.573839,37.1179161 124.072208,36.9507057 123.865943,36.5381766 C123.807963,36.4222163 123.777778,36.2943493 123.777778,36.1647017 L123.777778,36.1647017 L123.777,31 L123,31 C122.447715,31 122,30.5522847 122,30 C122,29.4871642 122.38604,29.0644928 122.883379,29.0067277 L123,29 L123.777,29 L123.777778,23.8351154 C123.777778,23.4093725 124.096362,23.0580389 124.508138,23.0065067 Z M18,29 C18.5522847,29 19,29.4477153 19,30 C19,30.5128358 18.6139598,30.9355072 18.1166211,30.9932723 L18,31 L13,31 C12.4477153,31 12,30.5522847 12,30 C12,29.4871642 12.3860402,29.0644928 12.8833789,29.0067277 L13,29 L18,29 Z M29,29 C29.5522847,29 30,29.4477153 30,30 C30,30.5128358 29.6139598,30.9355072 29.1166211,30.9932723 L29,31 L24,31 C23.4477153,31 23,30.5522847 23,30 C23,29.4871642 23.3860402,29.0644928 23.8833789,29.0067277 L24,29 L29,29 Z M40,29 C40.5522847,29 41,29.4477153 41,30 C41,30.5128358 40.6139598,30.9355072 40.1166211,30.9932723 L40,31 L35,31 C34.4477153,31 34,30.5522847 34,30 C34,29.4871642 34.3860402,29.0644928 34.8833789,29.0067277 L35,29 L40,29 Z M51,29 C51.5522847,29 52,29.4477153 52,30 C52,30.5128358 51.6139598,30.9355072 51.1166211,30.9932723 L51,31 L46,31 C45.4477153,31 45,30.5522847 45,30 C45,29.4871642 45.3860402,29.0644928 45.8833789,29.0067277 L46,29 L51,29 Z M62,29 C62.5522847,29 63,29.4477153 63,30 C63,30.5128358 62.6139598,30.9355072 62.1166211,30.9932723 L62,31 L57,31 C56.4477153,31 56,30.5522847 56,30 C56,29.4871642 56.3860402,29.0644928 56.8833789,29.0067277 L57,29 L62,29 Z M73,29 C73.5522847,29 74,29.4477153 74,30 C74,30.5128358 73.6139598,30.9355072 73.1166211,30.9932723 L73,31 L68,31 C67.4477153,31 67,30.5522847 67,30 C67,29.4871642 67.3860402,29.0644928 67.8833789,29.0067277 L68,29 L73,29 Z M84,29 C84.5522847,29 85,29.4477153 85,30 C85,30.5128358 84.6139598,30.9355072 84.1166211,30.9932723 L84,31 L79,31 C78.4477153,31 78,30.5522847 78,30 C78,29.4871642 78.3860402,29.0644928 78.8833789,29.0067277 L79,29 L84,29 Z M95,29 C95.5522847,29 96,29.4477153 96,30 C96,30.5128358 95.6139598,30.9355072 95.1166211,30.9932723 L95,31 L90,31 C89.4477153,31 89,30.5522847 89,30 C89,29.4871642 89.3860402,29.0644928 89.8833789,29.0067277 L90,29 L95,29 Z M106,29 C106.552285,29 107,29.4477153 107,30 C107,30.5128358 106.61396,30.9355072 106.116621,30.9932723 L106,31 L101,31 C100.447715,31 100,30.5522847 100,30 C100,29.4871642 100.38604,29.0644928 100.883379,29.0067277 L101,29 L106,29 Z M117,29 C117.552285,29 118,29.4477153 118,30 C118,30.5128358 117.61396,30.9355072 117.116621,30.9932723 L117,31 L112,31 C111.447715,31 111,30.5522847 111,30 C111,29.4871642 111.38604,29.0644928 111.883379,29.0067277 L112,29 L117,29 Z" fill="#D22A80" fill-rule="nonzero"></path>
                </g>
                <g id="Group" transform="translate(121.000000, 96.000000)">
                    <text id="defer" font-family="iAWriterQuattroS-Bold, iA Writer Quattro S" font-size="15" font-weight="bold" letter-spacing="0.236842" fill="#F0647D">
                        <tspan x="47.657895" y="22">defer</tspan>
                    </text>
                    <path id="Path-2" d="M7,-6 C7.51283584,-6 7.93550716,-5.61395981 7.99327227,-5.11662113 L8,-5 L8,0 L12,0 C12.5522847,0 13,0.44771525 13,1 C13,1.51283584 12.6139598,1.93550716 12.1166211,1.99327227 L12,2 L8,2 L8,7 C8,7.55228475 7.55228475,8 7,8 C6.48716416,8 6.06449284,7.61395981 6.00672773,7.11662113 L6,7 L6,-5 C6,-5.55228475 6.44771525,-6 7,-6 Z M129.612893,-6 C129.742541,-6 129.870408,-5.96981468 129.986368,-5.91183453 L129.986368,-5.91183453 L142.315954,0.252958649 C142.728483,0.459223163 142.895694,0.960854444 142.689429,1.37338347 C142.608621,1.53500118 142.477572,1.66604956 142.315954,1.74685841 L142.315954,1.74685841 L129.986368,7.91165159 C129.573839,8.1179161 129.072208,7.95070568 128.865943,7.53817665 C128.807963,7.42221634 128.777778,7.29434927 128.777778,7.16470171 L128.777778,7.16470171 L128.777,2 L128,2 C127.447715,2 127,1.55228475 127,1 C127,0.487164161 127.38604,0.0644928393 127.883379,0.00672773133 L128,0 L128.777,0 L128.777778,-5.16488464 C128.777778,-5.59062754 129.096362,-5.94196113 129.508138,-5.99349327 Z M23,0 C23.5522847,0 24,0.44771525 24,1 C24,1.51283584 23.6139598,1.93550716 23.1166211,1.99327227 L23,2 L18,2 C17.4477153,2 17,1.55228475 17,1 C17,0.487164161 17.3860402,0.0644928393 17.8833789,0.00672773133 L18,0 L23,0 Z M34,0 C34.5522847,0 35,0.44771525 35,1 C35,1.51283584 34.6139598,1.93550716 34.1166211,1.99327227 L34,2 L29,2 C28.4477153,2 28,1.55228475 28,1 C28,0.487164161 28.3860402,0.0644928393 28.8833789,0.00672773133 L29,0 L34,0 Z M45,0 C45.5522847,0 46,0.44771525 46,1 C46,1.51283584 45.6139598,1.93550716 45.1166211,1.99327227 L45,2 L40,2 C39.4477153,2 39,1.55228475 39,1 C39,0.487164161 39.3860402,0.0644928393 39.8833789,0.00672773133 L40,0 L45,0 Z M56,0 C56.5522847,0 57,0.44771525 57,1 C57,1.51283584 56.6139598,1.93550716 56.1166211,1.99327227 L56,2 L51,2 C50.4477153,2 50,1.55228475 50,1 C50,0.487164161 50.3860402,0.0644928393 50.8833789,0.00672773133 L51,0 L56,0 Z M67,0 C67.5522847,0 68,0.44771525 68,1 C68,1.51283584 67.6139598,1.93550716 67.1166211,1.99327227 L67,2 L62,2 C61.4477153,2 61,1.55228475 61,1 C61,0.487164161 61.3860402,0.0644928393 61.8833789,0.00672773133 L62,0 L67,0 Z M78,0 C78.5522847,0 79,0.44771525 79,1 C79,1.51283584 78.6139598,1.93550716 78.1166211,1.99327227 L78,2 L73,2 C72.4477153,2 72,1.55228475 72,1 C72,0.487164161 72.3860402,0.0644928393 72.8833789,0.00672773133 L73,0 L78,0 Z M89,0 C89.5522847,0 90,0.44771525 90,1 C90,1.51283584 89.6139598,1.93550716 89.1166211,1.99327227 L89,2 L84,2 C83.4477153,2 83,1.55228475 83,1 C83,0.487164161 83.3860402,0.0644928393 83.8833789,0.00672773133 L84,0 L89,0 Z M100,0 C100.552285,0 101,0.44771525 101,1 C101,1.51283584 100.61396,1.93550716 100.116621,1.99327227 L100,2 L95,2 C94.4477153,2 94,1.55228475 94,1 C94,0.487164161 94.3860402,0.0644928393 94.8833789,0.00672773133 L95,0 L100,0 Z M111,0 C111.552285,0 112,0.44771525 112,1 C112,1.51283584 111.61396,1.93550716 111.116621,1.99327227 L111,2 L106,2 C105.447715,2 105,1.55228475 105,1 C105,0.487164161 105.38604,0.0644928393 105.883379,0.00672773133 L106,0 L111,0 Z M122,0 C122.552285,0 123,0.44771525 123,1 C123,1.51283584 122.61396,1.93550716 122.116621,1.99327227 L122,2 L117,2 C116.447715,2 116,1.55228475 116,1 C116,0.487164161 116.38604,0.0644928393 116.883379,0.00672773133 L117,0 L122,0 Z" fill="#D22A80" fill-rule="nonzero"></path>
                </g>
                <text id="*-triggers-setState" opacity="0.9" font-family="NeueHaasUnicaW1G-Medium, Neue Haas Unica W1G" font-size="18" font-weight="400" line-spacing="20" letter-spacing="0.22" fill="#000000">
                    <tspan x="42" y="60">* triggers</tspan>
                    <tspan x="42" y="80">   setState</tspan>
                </text>
                <text id="apply" opacity="0.9" font-family="NeueHaasUnicaW1G-Bold, Neue Haas Unica W1G" font-size="18" font-weight="bold" letter-spacing="0.22" fill="#000000">
                    <tspan x="273" y="99">apply</tspan>
                </text>
            </g>
        </g>
    </g>
</svg>