<?xml version="1.0" encoding="UTF-8"?>
<svg width="717px" height="121px" viewBox="0 0 717 121" version="1.1" xmlns="http://www.w3.org/2000/svg" xmlns:xlink="http://www.w3.org/1999/xlink">
    <!-- Generator: Sketch 63 (92445) - https://sketch.com -->
    <title>Group 2</title>
    <desc>Created with Sketch.</desc>
    <g id="Page-1" stroke="none" stroke-width="1" fill="none" fill-rule="evenodd">
        <g id="Slide-9" transform="translate(-57.000000, -257.000000)">
            <g id="Group-2" transform="translate(59.000000, 257.500000)">
                <g id="Group" opacity="0.4" transform="translate(0.000000, 14.500000)">
                    <rect id="Rectangle" stroke="#FAE0D0" stroke-width="3" fill-opacity="0.3" fill="#FAE0D0" x="0" y="1" width="80" height="36" rx="4"></rect>
                    <text id="render" opacity="0.9" font-family="NeueHaasUnicaW1G-Regular, Neue Haas Unica W1G" font-size="16" font-weight="normal" line-spacing="13" letter-spacing="0.195555556" fill="#000000">
                        <tspan x="7.75733333" y="14.512">render</tspan>
                    </text>
                </g>
                <g id="Group" opacity="0.4" transform="translate(320.000000, 14.500000)">
                    <rect id="Rectangle" stroke="#FAE0D0" stroke-width="3" fill-opacity="0.3" fill="#FAE0D0" x="0" y="1" width="80" height="36" rx="4"></rect>
                    <text id="render" opacity="0.9" font-family="NeueHaasUnicaW1G-Regular, Neue Haas Unica W1G" font-size="16" font-weight="normal" line-spacing="13" letter-spacing="0.195555556" fill="#000000">
                        <tspan x="7.75733333" y="14.512">render</tspan>
                    </text>
                </g>
                <g id="Group" transform="translate(91.000000, 14.500000)">
                    <rect id="Rectangle" stroke="#F064AF" stroke-width="2" x="0" y="1" width="80" height="36" rx="4"></rect>
                    <text id="mount" opacity="0.9" font-family="NeueHaasUnicaW1G-Regular, Neue Haas Unica W1G" font-size="16" font-weight="normal" line-spacing="13" letter-spacing="0.195555556" fill="#000000">
                        <tspan x="8.39111111" y="14.512">mount</tspan>
                    </text>
                </g>
                <g id="Group" transform="translate(234.000000, 14.500000)">
                    <rect id="Rectangle" stroke="#F064AF" stroke-width="2" x="0" y="1" width="80" height="36" rx="4"></rect>
                    <text id="commit-mount" opacity="0.9" font-family="NeueHaasUnicaW1G-Regular, Neue Haas Unica W1G" font-size="16" font-weight="normal" line-spacing="13" letter-spacing="0.195555556" fill="#000000">
                        <tspan x="4.25333333" y="14.512">commit </tspan>
                        <tspan x="8.39111111" y="27.512">mount</tspan>
                    </text>
                </g>
                <g id="Group" transform="translate(406.000000, 14.500000)">
                    <rect id="Rectangle" stroke="#F064AF" stroke-width="2" x="0" y="1" width="80" height="36" rx="4"></rect>
                    <text id="update" opacity="0.9" font-family="NeueHaasUnicaW1G-Regular, Neue Haas Unica W1G" font-size="16" font-weight="normal" line-spacing="13" letter-spacing="0.195555556" fill="#000000">
                        <tspan x="6.58933333" y="14.512">update</tspan>
                    </text>
                </g>
                <g id="Group" opacity="0.4" transform="translate(634.000000, 14.500000)">
                    <rect id="Rectangle" stroke="#F064AF" stroke-width="2" x="0" y="1" width="80" height="36" rx="4"></rect>
                    <text id="unmount" opacity="0.9" font-family="NeueHaasUnicaW1G-Regular, Neue Haas Unica W1G" font-size="16" font-weight="normal" line-spacing="13" letter-spacing="0.195555556" fill="#000000">
                        <tspan x="0" y="19">unmount</tspan>
                    </text>
                </g>
                <g id="Group" transform="translate(548.000000, 14.500000)">
                    <rect id="Rectangle" stroke="#F064AF" stroke-width="2" x="0" y="1" width="80" height="36" rx="4"></rect>
                    <text id="commit-update" opacity="0.9" font-family="NeueHaasUnicaW1G-Regular, Neue Haas Unica W1G" font-size="16" font-weight="normal" line-spacing="13" letter-spacing="0.195555556" fill="#000000">
                        <tspan x="4.25333333" y="14.512">commit </tspan>
                        <tspan x="6.58933333" y="27.512">update</tspan>
                    </text>
                </g>
                <path id="Path-2" d="M182,59.5 C182.512836,59.5 182.935507,59.8860402 182.993272,60.3833789 L183,60.5 L183,65.5 L187,65.5 C187.552285,65.5 188,65.9477153 188,66.5 C188,67.0128358 187.61396,67.4355072 187.116621,67.4932723 L187,67.5 L183,67.5 L183,72.5 C183,73.0522847 182.552285,73.5 182,73.5 C181.487164,73.5 181.064493,73.1139598 181.006728,72.6166211 L181,72.5 L181,60.5 C181,59.9477153 181.447715,59.5 182,59.5 Z M215.612893,59.5 C215.742541,59.5 215.870408,59.5301853 215.986368,59.5881655 L215.986368,59.5881655 L228.315954,65.7529586 C228.728483,65.9592232 228.895694,66.4608544 228.689429,66.8733835 C228.608621,67.0350012 228.477572,67.1660496 228.315954,67.2468584 L228.315954,67.2468584 L215.986368,73.4116516 C215.573839,73.6179161 215.072208,73.4507057 214.865943,73.0381766 C214.807963,72.9222163 214.777778,72.7943493 214.777778,72.6647017 L214.777778,72.6647017 L214.77756,67.4751709 C214.332338,67.3740395 214,66.9758307 214,66.5 C214,66.0241693 214.332338,65.6259605 214.77756,65.5248291 L214.777778,60.3351154 C214.777778,59.8738939 215.151672,59.5 215.612893,59.5 Z M198,65.5 C198.552285,65.5 199,65.9477153 199,66.5 C199,67.0128358 198.61396,67.4355072 198.116621,67.4932723 L198,67.5 L193,67.5 C192.447715,67.5 192,67.0522847 192,66.5 C192,65.9871642 192.38604,65.5644928 192.883379,65.5067277 L193,65.5 L198,65.5 Z M209,65.5 C209.552285,65.5 210,65.9477153 210,66.5 C210,67.0128358 209.61396,67.4355072 209.116621,67.4932723 L209,67.5 L204,67.5 C203.447715,67.5 203,67.0522847 203,66.5 C203,65.9871642 203.38604,65.5644928 203.883379,65.5067277 L204,65.5 L209,65.5 Z" fill="#D22A80" fill-rule="nonzero"></path>
                <line x1="176" y1="117.5" x2="176" y2="0.5" id="Line" stroke="#F72020" stroke-width="2" stroke-linecap="square"></line>
                <line x1="86" y1="117.5" x2="86" y2="0.5" id="Line" stroke="#F72020" stroke-width="2" stroke-linecap="square"></line>
                <line x1="491" y1="117.5" x2="491" y2="0.5" id="Line" stroke="#F72020" stroke-width="2" stroke-linecap="square"></line>
                <path id="Path-2" d="M497,59.5 C497.512836,59.5 497.935507,59.8860402 497.993272,60.3833789 L498,60.5 L498,65.5 L502,65.5 C502.552285,65.5 503,65.9477153 503,66.5 C503,67.0128358 502.61396,67.4355072 502.116621,67.4932723 L502,67.5 L498,67.5 L498,72.5 C498,73.0522847 497.552285,73.5 497,73.5 C496.487164,73.5 496.064493,73.1139598 496.006728,72.6166211 L496,72.5 L496,60.5 C496,59.9477153 496.447715,59.5 497,59.5 Z M530.612893,59.5 C530.742541,59.5 530.870408,59.5301853 530.986368,59.5881655 L530.986368,59.5881655 L543.315954,65.7529586 C543.728483,65.9592232 543.895694,66.4608544 543.689429,66.8733835 C543.608621,67.0350012 543.477572,67.1660496 543.315954,67.2468584 L543.315954,67.2468584 L530.986368,73.4116516 C530.573839,73.6179161 530.072208,73.4507057 529.865943,73.0381766 C529.807963,72.9222163 529.777778,72.7943493 529.777778,72.6647017 L529.777778,72.6647017 L529.77756,67.4751709 C529.332338,67.3740395 529,66.9758307 529,66.5 C529,66.0241693 529.332338,65.6259605 529.77756,65.5248291 L529.777778,60.3351154 C529.777778,59.8738939 530.151672,59.5 530.612893,59.5 Z M513,65.5 C513.552285,65.5 514,65.9477153 514,66.5 C514,67.0128358 513.61396,67.4355072 513.116621,67.4932723 L513,67.5 L508,67.5 C507.447715,67.5 507,67.0522847 507,66.5 C507,65.9871642 507.38604,65.5644928 507.883379,65.5067277 L508,65.5 L513,65.5 Z M524,65.5 C524.552285,65.5 525,65.9477153 525,66.5 C525,67.0128358 524.61396,67.4355072 524.116621,67.4932723 L524,67.5 L519,67.5 C518.447715,67.5 518,67.0522847 518,66.5 C518,65.9871642 518.38604,65.5644928 518.883379,65.5067277 L519,65.5 L524,65.5 Z" fill="#D22A80" fill-rule="nonzero"></path>
                <text id="possible-suspense" opacity="0.9" font-family="NeueHaasUnicaW1G-Medium, Neue Haas Unica W1G" font-size="16" font-weight="400" line-spacing="13" letter-spacing="0.195555556" fill="#000000">
                    <tspan x="90" y="106.5">possible </tspan>
                    <tspan x="90" y="119.5">suspense</tspan>
                </text>
                <text id="possible-interrupt" opacity="0.9" font-family="NeueHaasUnicaW1G-Medium, Neue Haas Unica W1G" font-size="16" font-weight="400" line-spacing="13" letter-spacing="0.195555556" fill="#000000">
                    <tspan x="181" y="105.5">possible </tspan>
                    <tspan x="181" y="118.5">interrupt</tspan>
                </text>
                <text id="possible-interrupt" opacity="0.9" font-family="NeueHaasUnicaW1G-Medium, Neue Haas Unica W1G" font-size="16" font-weight="400" line-spacing="13" letter-spacing="0.195555556" fill="#000000">
                    <tspan x="496" y="106.5">possible </tspan>
                    <tspan x="496" y="119.5">interrupt</tspan>
                </text>
            </g>
        </g>
    </g>
</svg>