<?xml version="1.0" encoding="UTF-8"?>
<svg width="621px" height="31px" viewBox="0 0 621 31" version="1.1" xmlns="http://www.w3.org/2000/svg" xmlns:xlink="http://www.w3.org/1999/xlink">
    <!-- Generator: Sketch 63 (92445) - https://sketch.com -->
    <title>Group 2</title>
    <desc>Created with Sketch.</desc>
    <g id="Page-1" stroke="none" stroke-width="1" fill="none" fill-rule="evenodd">
        <g id="Slide-9" transform="translate(-106.000000, -283.000000)">
            <g id="Group-2" transform="translate(105.000000, 276.000000)">
                <g id="Group">
                    <text id="16.6ms" font-family="iAWriterQuattroS-Bold, iA Writer Quattro S" font-size="15" font-weight="bold" line-spacing="19" letter-spacing="0.236842" fill="#F0647D">
                        <tspan x="38.539474" y="15">16.6ms</tspan>
                    </text>
                    <path id="Path-2" d="M2,23 C2.51283584,23 2.93550716,23.3860402 2.99327227,23.8833789 L3,24 L3,29 L7,29 C7.55228475,29 8,29.4477153 8,30 C8,30.5128358 7.61395981,30.9355072 7.11662113,30.9932723 L7,31 L3,31 L3,36 C3,36.5522847 2.55228475,37 2,37 C1.48716416,37 1.06449284,36.6139598 1.00672773,36.1166211 L1,36 L1,24 C1,23.4477153 1.44771525,23 2,23 Z M124.612893,23 C124.742541,23 124.870408,23.0301853 124.986368,23.0881655 L124.986368,23.0881655 L137.315954,29.2529586 C137.728483,29.4592232 137.895694,29.9608544 137.689429,30.3733835 C137.608621,30.5350012 137.477572,30.6660496 137.315954,30.7468584 L137.315954,30.7468584 L124.986368,36.9116516 C124.573839,37.1179161 124.072208,36.9507057 123.865943,36.5381766 C123.807963,36.4222163 123.777778,36.2943493 123.777778,36.1647017 L123.777778,36.1647017 L123.777,31 L123,31 C122.447715,31 122,30.5522847 122,30 C122,29.4871642 122.38604,29.0644928 122.883379,29.0067277 L123,29 L123.777,29 L123.777778,23.8351154 C123.777778,23.4093725 124.096362,23.0580389 124.508138,23.0065067 Z M18,29 C18.5522847,29 19,29.4477153 19,30 C19,30.5128358 18.6139598,30.9355072 18.1166211,30.9932723 L18,31 L13,31 C12.4477153,31 12,30.5522847 12,30 C12,29.4871642 12.3860402,29.0644928 12.8833789,29.0067277 L13,29 L18,29 Z M29,29 C29.5522847,29 30,29.4477153 30,30 C30,30.5128358 29.6139598,30.9355072 29.1166211,30.9932723 L29,31 L24,31 C23.4477153,31 23,30.5522847 23,30 C23,29.4871642 23.3860402,29.0644928 23.8833789,29.0067277 L24,29 L29,29 Z M40,29 C40.5522847,29 41,29.4477153 41,30 C41,30.5128358 40.6139598,30.9355072 40.1166211,30.9932723 L40,31 L35,31 C34.4477153,31 34,30.5522847 34,30 C34,29.4871642 34.3860402,29.0644928 34.8833789,29.0067277 L35,29 L40,29 Z M51,29 C51.5522847,29 52,29.4477153 52,30 C52,30.5128358 51.6139598,30.9355072 51.1166211,30.9932723 L51,31 L46,31 C45.4477153,31 45,30.5522847 45,30 C45,29.4871642 45.3860402,29.0644928 45.8833789,29.0067277 L46,29 L51,29 Z M62,29 C62.5522847,29 63,29.4477153 63,30 C63,30.5128358 62.6139598,30.9355072 62.1166211,30.9932723 L62,31 L57,31 C56.4477153,31 56,30.5522847 56,30 C56,29.4871642 56.3860402,29.0644928 56.8833789,29.0067277 L57,29 L62,29 Z M73,29 C73.5522847,29 74,29.4477153 74,30 C74,30.5128358 73.6139598,30.9355072 73.1166211,30.9932723 L73,31 L68,31 C67.4477153,31 67,30.5522847 67,30 C67,29.4871642 67.3860402,29.0644928 67.8833789,29.0067277 L68,29 L73,29 Z M84,29 C84.5522847,29 85,29.4477153 85,30 C85,30.5128358 84.6139598,30.9355072 84.1166211,30.9932723 L84,31 L79,31 C78.4477153,31 78,30.5522847 78,30 C78,29.4871642 78.3860402,29.0644928 78.8833789,29.0067277 L79,29 L84,29 Z M95,29 C95.5522847,29 96,29.4477153 96,30 C96,30.5128358 95.6139598,30.9355072 95.1166211,30.9932723 L95,31 L90,31 C89.4477153,31 89,30.5522847 89,30 C89,29.4871642 89.3860402,29.0644928 89.8833789,29.0067277 L90,29 L95,29 Z M106,29 C106.552285,29 107,29.4477153 107,30 C107,30.5128358 106.61396,30.9355072 106.116621,30.9932723 L106,31 L101,31 C100.447715,31 100,30.5522847 100,30 C100,29.4871642 100.38604,29.0644928 100.883379,29.0067277 L101,29 L106,29 Z M117,29 C117.552285,29 118,29.4477153 118,30 C118,30.5128358 117.61396,30.9355072 117.116621,30.9932723 L117,31 L112,31 C111.447715,31 111,30.5522847 111,30 C111,29.4871642 111.38604,29.0644928 111.883379,29.0067277 L112,29 L117,29 Z" fill="#D22A80" fill-rule="nonzero"></path>
                </g>
                <g id="Group" transform="translate(484.000000, 1.000000)">
                    <text id="16.6ms" font-family="iAWriterQuattroS-Bold, iA Writer Quattro S" font-size="15" font-weight="bold" line-spacing="19" letter-spacing="0.236842" fill="#F0647D">
                        <tspan x="38.539474" y="15">16.6ms</tspan>
                    </text>
                    <path id="Path-2" d="M2,23 C2.51283584,23 2.93550716,23.3860402 2.99327227,23.8833789 L3,24 L3,29 L7,29 C7.55228475,29 8,29.4477153 8,30 C8,30.5128358 7.61395981,30.9355072 7.11662113,30.9932723 L7,31 L3,31 L3,36 C3,36.5522847 2.55228475,37 2,37 C1.48716416,37 1.06449284,36.6139598 1.00672773,36.1166211 L1,36 L1,24 C1,23.4477153 1.44771525,23 2,23 Z M124.612893,23 C124.742541,23 124.870408,23.0301853 124.986368,23.0881655 L124.986368,23.0881655 L137.315954,29.2529586 C137.728483,29.4592232 137.895694,29.9608544 137.689429,30.3733835 C137.608621,30.5350012 137.477572,30.6660496 137.315954,30.7468584 L137.315954,30.7468584 L124.986368,36.9116516 C124.573839,37.1179161 124.072208,36.9507057 123.865943,36.5381766 C123.807963,36.4222163 123.777778,36.2943493 123.777778,36.1647017 L123.777778,36.1647017 L123.777,31 L123,31 C122.447715,31 122,30.5522847 122,30 C122,29.4871642 122.38604,29.0644928 122.883379,29.0067277 L123,29 L123.777,29 L123.777778,23.8351154 C123.777778,23.4093725 124.096362,23.0580389 124.508138,23.0065067 Z M18,29 C18.5522847,29 19,29.4477153 19,30 C19,30.5128358 18.6139598,30.9355072 18.1166211,30.9932723 L18,31 L13,31 C12.4477153,31 12,30.5522847 12,30 C12,29.4871642 12.3860402,29.0644928 12.8833789,29.0067277 L13,29 L18,29 Z M29,29 C29.5522847,29 30,29.4477153 30,30 C30,30.5128358 29.6139598,30.9355072 29.1166211,30.9932723 L29,31 L24,31 C23.4477153,31 23,30.5522847 23,30 C23,29.4871642 23.3860402,29.0644928 23.8833789,29.0067277 L24,29 L29,29 Z M40,29 C40.5522847,29 41,29.4477153 41,30 C41,30.5128358 40.6139598,30.9355072 40.1166211,30.9932723 L40,31 L35,31 C34.4477153,31 34,30.5522847 34,30 C34,29.4871642 34.3860402,29.0644928 34.8833789,29.0067277 L35,29 L40,29 Z M51,29 C51.5522847,29 52,29.4477153 52,30 C52,30.5128358 51.6139598,30.9355072 51.1166211,30.9932723 L51,31 L46,31 C45.4477153,31 45,30.5522847 45,30 C45,29.4871642 45.3860402,29.0644928 45.8833789,29.0067277 L46,29 L51,29 Z M62,29 C62.5522847,29 63,29.4477153 63,30 C63,30.5128358 62.6139598,30.9355072 62.1166211,30.9932723 L62,31 L57,31 C56.4477153,31 56,30.5522847 56,30 C56,29.4871642 56.3860402,29.0644928 56.8833789,29.0067277 L57,29 L62,29 Z M73,29 C73.5522847,29 74,29.4477153 74,30 C74,30.5128358 73.6139598,30.9355072 73.1166211,30.9932723 L73,31 L68,31 C67.4477153,31 67,30.5522847 67,30 C67,29.4871642 67.3860402,29.0644928 67.8833789,29.0067277 L68,29 L73,29 Z M84,29 C84.5522847,29 85,29.4477153 85,30 C85,30.5128358 84.6139598,30.9355072 84.1166211,30.9932723 L84,31 L79,31 C78.4477153,31 78,30.5522847 78,30 C78,29.4871642 78.3860402,29.0644928 78.8833789,29.0067277 L79,29 L84,29 Z M95,29 C95.5522847,29 96,29.4477153 96,30 C96,30.5128358 95.6139598,30.9355072 95.1166211,30.9932723 L95,31 L90,31 C89.4477153,31 89,30.5522847 89,30 C89,29.4871642 89.3860402,29.0644928 89.8833789,29.0067277 L90,29 L95,29 Z M106,29 C106.552285,29 107,29.4477153 107,30 C107,30.5128358 106.61396,30.9355072 106.116621,30.9932723 L106,31 L101,31 C100.447715,31 100,30.5522847 100,30 C100,29.4871642 100.38604,29.0644928 100.883379,29.0067277 L101,29 L106,29 Z M117,29 C117.552285,29 118,29.4477153 118,30 C118,30.5128358 117.61396,30.9355072 117.116621,30.9932723 L117,31 L112,31 C111.447715,31 111,30.5522847 111,30 C111,29.4871642 111.38604,29.0644928 111.883379,29.0067277 L112,29 L117,29 Z" fill="#D22A80" fill-rule="nonzero"></path>
                </g>
                <g id="Group" transform="translate(242.000000, 1.000000)">
                    <text id="16.6ms" font-family="iAWriterQuattroS-Bold, iA Writer Quattro S" font-size="15" font-weight="bold" line-spacing="19" letter-spacing="0.236842" fill="#F0647D">
                        <tspan x="38.539474" y="15">16.6ms</tspan>
                    </text>
                    <path id="Path-2" d="M2,23 C2.51283584,23 2.93550716,23.3860402 2.99327227,23.8833789 L3,24 L3,29 L7,29 C7.55228475,29 8,29.4477153 8,30 C8,30.5128358 7.61395981,30.9355072 7.11662113,30.9932723 L7,31 L3,31 L3,36 C3,36.5522847 2.55228475,37 2,37 C1.48716416,37 1.06449284,36.6139598 1.00672773,36.1166211 L1,36 L1,24 C1,23.4477153 1.44771525,23 2,23 Z M124.612893,23 C124.742541,23 124.870408,23.0301853 124.986368,23.0881655 L124.986368,23.0881655 L137.315954,29.2529586 C137.728483,29.4592232 137.895694,29.9608544 137.689429,30.3733835 C137.608621,30.5350012 137.477572,30.6660496 137.315954,30.7468584 L137.315954,30.7468584 L124.986368,36.9116516 C124.573839,37.1179161 124.072208,36.9507057 123.865943,36.5381766 C123.807963,36.4222163 123.777778,36.2943493 123.777778,36.1647017 L123.777778,36.1647017 L123.777,31 L123,31 C122.447715,31 122,30.5522847 122,30 C122,29.4871642 122.38604,29.0644928 122.883379,29.0067277 L123,29 L123.777,29 L123.777778,23.8351154 C123.777778,23.4093725 124.096362,23.0580389 124.508138,23.0065067 Z M18,29 C18.5522847,29 19,29.4477153 19,30 C19,30.5128358 18.6139598,30.9355072 18.1166211,30.9932723 L18,31 L13,31 C12.4477153,31 12,30.5522847 12,30 C12,29.4871642 12.3860402,29.0644928 12.8833789,29.0067277 L13,29 L18,29 Z M29,29 C29.5522847,29 30,29.4477153 30,30 C30,30.5128358 29.6139598,30.9355072 29.1166211,30.9932723 L29,31 L24,31 C23.4477153,31 23,30.5522847 23,30 C23,29.4871642 23.3860402,29.0644928 23.8833789,29.0067277 L24,29 L29,29 Z M40,29 C40.5522847,29 41,29.4477153 41,30 C41,30.5128358 40.6139598,30.9355072 40.1166211,30.9932723 L40,31 L35,31 C34.4477153,31 34,30.5522847 34,30 C34,29.4871642 34.3860402,29.0644928 34.8833789,29.0067277 L35,29 L40,29 Z M51,29 C51.5522847,29 52,29.4477153 52,30 C52,30.5128358 51.6139598,30.9355072 51.1166211,30.9932723 L51,31 L46,31 C45.4477153,31 45,30.5522847 45,30 C45,29.4871642 45.3860402,29.0644928 45.8833789,29.0067277 L46,29 L51,29 Z M62,29 C62.5522847,29 63,29.4477153 63,30 C63,30.5128358 62.6139598,30.9355072 62.1166211,30.9932723 L62,31 L57,31 C56.4477153,31 56,30.5522847 56,30 C56,29.4871642 56.3860402,29.0644928 56.8833789,29.0067277 L57,29 L62,29 Z M73,29 C73.5522847,29 74,29.4477153 74,30 C74,30.5128358 73.6139598,30.9355072 73.1166211,30.9932723 L73,31 L68,31 C67.4477153,31 67,30.5522847 67,30 C67,29.4871642 67.3860402,29.0644928 67.8833789,29.0067277 L68,29 L73,29 Z M84,29 C84.5522847,29 85,29.4477153 85,30 C85,30.5128358 84.6139598,30.9355072 84.1166211,30.9932723 L84,31 L79,31 C78.4477153,31 78,30.5522847 78,30 C78,29.4871642 78.3860402,29.0644928 78.8833789,29.0067277 L79,29 L84,29 Z M95,29 C95.5522847,29 96,29.4477153 96,30 C96,30.5128358 95.6139598,30.9355072 95.1166211,30.9932723 L95,31 L90,31 C89.4477153,31 89,30.5522847 89,30 C89,29.4871642 89.3860402,29.0644928 89.8833789,29.0067277 L90,29 L95,29 Z M106,29 C106.552285,29 107,29.4477153 107,30 C107,30.5128358 106.61396,30.9355072 106.116621,30.9932723 L106,31 L101,31 C100.447715,31 100,30.5522847 100,30 C100,29.4871642 100.38604,29.0644928 100.883379,29.0067277 L101,29 L106,29 Z M117,29 C117.552285,29 118,29.4477153 118,30 C118,30.5128358 117.61396,30.9355072 117.116621,30.9932723 L117,31 L112,31 C111.447715,31 111,30.5522847 111,30 C111,29.4871642 111.38604,29.0644928 111.883379,29.0067277 L112,29 L117,29 Z" fill="#D22A80" fill-rule="nonzero"></path>
                </g>
                <text id="Interrupt!" opacity="0.9" font-family="NeueHaasUnicaW1G-Bold, Neue Haas Unica W1G" font-size="18" font-weight="bold" letter-spacing="0.22" fill="#000000">
                    <tspan x="147" y="29">Interrupt!</tspan>
                </text>
                <text id="Interrupt!" opacity="0.9" font-family="NeueHaasUnicaW1G-Bold, Neue Haas Unica W1G" font-size="18" font-weight="bold" letter-spacing="0.22" fill="#000000">
                    <tspan x="389" y="29">Interrupt!</tspan>
                </text>
            </g>
        </g>
    </g>
</svg>