<?xml version="1.0" encoding="UTF-8"?>
<svg width="795px" height="267px" viewBox="0 0 795 267" version="1.1" xmlns="http://www.w3.org/2000/svg" xmlns:xlink="http://www.w3.org/1999/xlink">
    <!-- Generator: Sketch 63 (92445) - https://sketch.com -->
    <title>Group 6</title>
    <desc>Created with Sketch.</desc>
    <g id="Page-1" stroke="none" stroke-width="1" fill="none" fill-rule="evenodd">
        <g id="Slide-9" transform="translate(-24.000000, -161.000000)">
            <g id="Group-6" transform="translate(24.000000, 167.000000)">
                <g id="Group-2" transform="translate(0.000000, 74.000000)" fill="#F0647D" font-family="iAWriterQuattroS-Bold, iA Writer Quattro S" font-size="15" font-weight="bold" letter-spacing="0.236842">
                    <text id="useMemo()">
                        <tspan x="0" y="15">useMemo()</tspan>
                    </text>
                    <text id="useRef()">
                        <tspan x="0" y="47">useRef()</tspan>
                    </text>
                    <text id="useEffect()">
                        <tspan x="0" y="143">useEffect()</tspan>
                    </text>
                    <text id="useLayoutEffect()">
                        <tspan x="0" y="175">useLayoutEffect()</tspan>
                    </text>
                    <text id="useState()">
                        <tspan x="0" y="79">useState()</tspan>
                    </text>
                    <text id="useReducer()">
                        <tspan x="0" y="111">useReducer()</tspan>
                    </text>
                </g>
                <g id="Group" transform="translate(152.000000, 19.000000)">
                    <rect id="Rectangle" stroke="#FAE0D0" stroke-width="3" fill-opacity="0.3" fill="#FAE0D0" x="0" y="1" width="80" height="36" rx="4"></rect>
                    <text id="render" opacity="0.9" font-family="NeueHaasUnicaW1G-Bold, Neue Haas Unica W1G" font-size="16" font-weight="bold" line-spacing="13" letter-spacing="0.195555556" fill="#000000">
                        <tspan x="6.48533333" y="14.144">render</tspan>
                    </text>
                </g>
                <g id="Group" transform="translate(430.000000, 19.000000)">
                    <rect id="Rectangle" stroke="#FAE0D0" stroke-width="3" fill-opacity="0.3" fill="#FAE0D0" x="0" y="1" width="80" height="36" rx="4"></rect>
                    <text id="render" opacity="0.9" font-family="NeueHaasUnicaW1G-Bold, Neue Haas Unica W1G" font-size="16" font-weight="bold" line-spacing="13" letter-spacing="0.195555556" fill="#000000">
                        <tspan x="6.48533333" y="14.144">render</tspan>
                    </text>
                </g>
                <g id="Group" transform="translate(245.000000, 19.000000)">
                    <rect id="Rectangle" stroke="#F064AF" stroke-width="2" x="0" y="1" width="80" height="36" rx="4"></rect>
                    <text id="mount" opacity="0.9" font-family="NeueHaasUnicaW1G-Medium, Neue Haas Unica W1G" font-size="16" font-weight="400" line-spacing="13" letter-spacing="0.195555556" fill="#000000">
                        <tspan x="7.79911111" y="14.32">mount</tspan>
                    </text>
                </g>
                <g id="Group" transform="translate(337.000000, 19.000000)">
                    <rect id="Rectangle" stroke="#F064AF" stroke-width="2" x="0" y="1" width="80" height="36" rx="4"></rect>
                    <text id="commit-mount" opacity="0.9" font-family="NeueHaasUnicaW1G-Medium, Neue Haas Unica W1G" font-size="16" font-weight="400" line-spacing="13" letter-spacing="0.195555556" fill="#000000">
                        <tspan x="3.49333333" y="14.32">commit </tspan>
                        <tspan x="7.79911111" y="27.32">mount</tspan>
                    </text>
                </g>
                <g id="Group" transform="translate(523.000000, 19.000000)">
                    <rect id="Rectangle" stroke="#F064AF" stroke-width="2" x="0" y="1" width="80" height="36" rx="4"></rect>
                    <text id="update" opacity="0.9" font-family="NeueHaasUnicaW1G-Medium, Neue Haas Unica W1G" font-size="16" font-weight="400" line-spacing="13" letter-spacing="0.195555556" fill="#000000">
                        <tspan x="6.00533333" y="14.32">update</tspan>
                    </text>
                </g>
                <g id="Group" transform="translate(708.000000, 19.000000)">
                    <rect id="Rectangle" stroke="#F064AF" stroke-width="2" x="0" y="1" width="80" height="36" rx="4"></rect>
                    <text id="unmount" opacity="0.9" font-family="NeueHaasUnicaW1G-Medium, Neue Haas Unica W1G" font-size="16" font-weight="400" line-spacing="13" letter-spacing="0.195555556" fill="#000000">
                        <tspan x="0" y="19">unmount</tspan>
                    </text>
                </g>
                <g id="Group" transform="translate(615.000000, 19.000000)">
                    <rect id="Rectangle" stroke="#F064AF" stroke-width="2" x="0" y="1" width="80" height="36" rx="4"></rect>
                    <text id="commit-update" opacity="0.9" font-family="NeueHaasUnicaW1G-Medium, Neue Haas Unica W1G" font-size="16" font-weight="400" line-spacing="13" letter-spacing="0.195555556" fill="#000000">
                        <tspan x="3.49333333" y="14.32">commit </tspan>
                        <tspan x="6.00533333" y="27.32">update</tspan>
                    </text>
                </g>
                <path id="Path-2" d="M430,-6 C430.512836,-6 430.935507,-5.61395981 430.993272,-5.11662113 L431,-5 L431,0 L435,0 C435.552285,0 436,0.44771525 436,1 C436,1.51283584 435.61396,1.93550716 435.116621,1.99327227 L435,2 L431,2 L431,7 C431,7.55228475 430.552285,8 430,8 C429.487164,8 429.064493,7.61395981 429.006728,7.11662113 L429,7 L429,-5 C429,-5.55228475 429.447715,-6 430,-6 Z M682.612893,-6 C682.742541,-6 682.870408,-5.96981468 682.986368,-5.91183453 L682.986368,-5.91183453 L695.315954,0.252958649 C695.728483,0.459223163 695.895694,0.960854444 695.689429,1.37338347 C695.608621,1.53500118 695.477572,1.66604956 695.315954,1.74685841 L695.315954,1.74685841 L682.986368,7.91165159 C682.573839,8.1179161 682.072208,7.95070568 681.865943,7.53817665 C681.807963,7.42221634 681.777778,7.29434927 681.777778,7.16470171 L681.777778,7.16470171 L681.777778,-5.16488464 C681.777778,-5.62610612 682.151672,-6 682.612893,-6 Z M446,0 C446.552285,0 447,0.44771525 447,1 C447,1.51283584 446.61396,1.93550716 446.116621,1.99327227 L446,2 L441,2 C440.447715,2 440,1.55228475 440,1 C440,0.487164161 440.38604,0.0644928393 440.883379,0.00672773133 L441,0 L446,0 Z M457,0 C457.552285,0 458,0.44771525 458,1 C458,1.51283584 457.61396,1.93550716 457.116621,1.99327227 L457,2 L452,2 C451.447715,2 451,1.55228475 451,1 C451,0.487164161 451.38604,0.0644928393 451.883379,0.00672773133 L452,0 L457,0 Z M468,0 C468.552285,0 469,0.44771525 469,1 C469,1.51283584 468.61396,1.93550716 468.116621,1.99327227 L468,2 L463,2 C462.447715,2 462,1.55228475 462,1 C462,0.487164161 462.38604,0.0644928393 462.883379,0.00672773133 L463,0 L468,0 Z M479,0 C479.552285,0 480,0.44771525 480,1 C480,1.51283584 479.61396,1.93550716 479.116621,1.99327227 L479,2 L474,2 C473.447715,2 473,1.55228475 473,1 C473,0.487164161 473.38604,0.0644928393 473.883379,0.00672773133 L474,0 L479,0 Z M490,0 C490.552285,0 491,0.44771525 491,1 C491,1.51283584 490.61396,1.93550716 490.116621,1.99327227 L490,2 L485,2 C484.447715,2 484,1.55228475 484,1 C484,0.487164161 484.38604,0.0644928393 484.883379,0.00672773133 L485,0 L490,0 Z M501,0 C501.552285,0 502,0.44771525 502,1 C502,1.51283584 501.61396,1.93550716 501.116621,1.99327227 L501,2 L496,2 C495.447715,2 495,1.55228475 495,1 C495,0.487164161 495.38604,0.0644928393 495.883379,0.00672773133 L496,0 L501,0 Z M512,0 C512.552285,0 513,0.44771525 513,1 C513,1.51283584 512.61396,1.93550716 512.116621,1.99327227 L512,2 L507,2 C506.447715,2 506,1.55228475 506,1 C506,0.487164161 506.38604,0.0644928393 506.883379,0.00672773133 L507,0 L512,0 Z M523,0 C523.552285,0 524,0.44771525 524,1 C524,1.51283584 523.61396,1.93550716 523.116621,1.99327227 L523,2 L518,2 C517.447715,2 517,1.55228475 517,1 C517,0.487164161 517.38604,0.0644928393 517.883379,0.00672773133 L518,0 L523,0 Z M534,0 C534.552285,0 535,0.44771525 535,1 C535,1.51283584 534.61396,1.93550716 534.116621,1.99327227 L534,2 L529,2 C528.447715,2 528,1.55228475 528,1 C528,0.487164161 528.38604,0.0644928393 528.883379,0.00672773133 L529,0 L534,0 Z M545,0 C545.552285,0 546,0.44771525 546,1 C546,1.51283584 545.61396,1.93550716 545.116621,1.99327227 L545,2 L540,2 C539.447715,2 539,1.55228475 539,1 C539,0.487164161 539.38604,0.0644928393 539.883379,0.00672773133 L540,0 L545,0 Z M556,0 C556.552285,0 557,0.44771525 557,1 C557,1.51283584 556.61396,1.93550716 556.116621,1.99327227 L556,2 L551,2 C550.447715,2 550,1.55228475 550,1 C550,0.487164161 550.38604,0.0644928393 550.883379,0.00672773133 L551,0 L556,0 Z M567,0 C567.552285,0 568,0.44771525 568,1 C568,1.51283584 567.61396,1.93550716 567.116621,1.99327227 L567,2 L562,2 C561.447715,2 561,1.55228475 561,1 C561,0.487164161 561.38604,0.0644928393 561.883379,0.00672773133 L562,0 L567,0 Z M578,0 C578.552285,0 579,0.44771525 579,1 C579,1.51283584 578.61396,1.93550716 578.116621,1.99327227 L578,2 L573,2 C572.447715,2 572,1.55228475 572,1 C572,0.487164161 572.38604,0.0644928393 572.883379,0.00672773133 L573,0 L578,0 Z M589,0 C589.552285,0 590,0.44771525 590,1 C590,1.51283584 589.61396,1.93550716 589.116621,1.99327227 L589,2 L584,2 C583.447715,2 583,1.55228475 583,1 C583,0.487164161 583.38604,0.0644928393 583.883379,0.00672773133 L584,0 L589,0 Z M600,0 C600.552285,0 601,0.44771525 601,1 C601,1.51283584 600.61396,1.93550716 600.116621,1.99327227 L600,2 L595,2 C594.447715,2 594,1.55228475 594,1 C594,0.487164161 594.38604,0.0644928393 594.883379,0.00672773133 L595,0 L600,0 Z M611,0 C611.552285,0 612,0.44771525 612,1 C612,1.51283584 611.61396,1.93550716 611.116621,1.99327227 L611,2 L606,2 C605.447715,2 605,1.55228475 605,1 C605,0.487164161 605.38604,0.0644928393 605.883379,0.00672773133 L606,0 L611,0 Z M622,0 C622.552285,0 623,0.44771525 623,1 C623,1.51283584 622.61396,1.93550716 622.116621,1.99327227 L622,2 L617,2 C616.447715,2 616,1.55228475 616,1 C616,0.487164161 616.38604,0.0644928393 616.883379,0.00672773133 L617,0 L622,0 Z M633,0 C633.552285,0 634,0.44771525 634,1 C634,1.51283584 633.61396,1.93550716 633.116621,1.99327227 L633,2 L628,2 C627.447715,2 627,1.55228475 627,1 C627,0.487164161 627.38604,0.0644928393 627.883379,0.00672773133 L628,0 L633,0 Z M644,0 C644.552285,0 645,0.44771525 645,1 C645,1.51283584 644.61396,1.93550716 644.116621,1.99327227 L644,2 L639,2 C638.447715,2 638,1.55228475 638,1 C638,0.487164161 638.38604,0.0644928393 638.883379,0.00672773133 L639,0 L644,0 Z M655,0 C655.552285,0 656,0.44771525 656,1 C656,1.51283584 655.61396,1.93550716 655.116621,1.99327227 L655,2 L650,2 C649.447715,2 649,1.55228475 649,1 C649,0.487164161 649.38604,0.0644928393 649.883379,0.00672773133 L650,0 L655,0 Z M666,0 C666.552285,0 667,0.44771525 667,1 C667,1.51283584 666.61396,1.93550716 666.116621,1.99327227 L666,2 L661,2 C660.447715,2 660,1.55228475 660,1 C660,0.487164161 660.38604,0.0644928393 660.883379,0.00672773133 L661,0 L666,0 Z M677,0 C677.552285,0 678,0.44771525 678,1 C678,1.51283584 677.61396,1.93550716 677.116621,1.99327227 L677,2 L672,2 C671.447715,2 671,1.55228475 671,1 C671,0.487164161 671.38604,0.0644928393 671.883379,0.00672773133 L672,0 L677,0 Z" fill="#D22A80" fill-rule="nonzero"></path>
                <path id="Path-2" d="M152,-6 C152.512836,-6 152.935507,-5.61395981 152.993272,-5.11662113 L153,-5 L153,0 L157,0 C157.552285,0 158,0.44771525 158,1 C158,1.51283584 157.61396,1.93550716 157.116621,1.99327227 L157,2 L153,2 L153,7 C153,7.55228475 152.552285,8 152,8 C151.487164,8 151.064493,7.61395981 151.006728,7.11662113 L151,7 L151,-5 C151,-5.55228475 151.447715,-6 152,-6 Z M404.612893,-6 C404.742541,-6 404.870408,-5.96981468 404.986368,-5.91183453 L404.986368,-5.91183453 L417.315954,0.252958649 C417.728483,0.459223163 417.895694,0.960854444 417.689429,1.37338347 C417.608621,1.53500118 417.477572,1.66604956 417.315954,1.74685841 L417.315954,1.74685841 L404.986368,7.91165159 C404.573839,8.1179161 404.072208,7.95070568 403.865943,7.53817665 C403.807963,7.42221634 403.777778,7.29434927 403.777778,7.16470171 L403.777778,7.16470171 L403.777778,-5.16488464 C403.777778,-5.62610612 404.151672,-6 404.612893,-6 Z M168,0 C168.552285,0 169,0.44771525 169,1 C169,1.51283584 168.61396,1.93550716 168.116621,1.99327227 L168,2 L163,2 C162.447715,2 162,1.55228475 162,1 C162,0.487164161 162.38604,0.0644928393 162.883379,0.00672773133 L163,0 L168,0 Z M179,0 C179.552285,0 180,0.44771525 180,1 C180,1.51283584 179.61396,1.93550716 179.116621,1.99327227 L179,2 L174,2 C173.447715,2 173,1.55228475 173,1 C173,0.487164161 173.38604,0.0644928393 173.883379,0.00672773133 L174,0 L179,0 Z M190,0 C190.552285,0 191,0.44771525 191,1 C191,1.51283584 190.61396,1.93550716 190.116621,1.99327227 L190,2 L185,2 C184.447715,2 184,1.55228475 184,1 C184,0.487164161 184.38604,0.0644928393 184.883379,0.00672773133 L185,0 L190,0 Z M201,0 C201.552285,0 202,0.44771525 202,1 C202,1.51283584 201.61396,1.93550716 201.116621,1.99327227 L201,2 L196,2 C195.447715,2 195,1.55228475 195,1 C195,0.487164161 195.38604,0.0644928393 195.883379,0.00672773133 L196,0 L201,0 Z M212,0 C212.552285,0 213,0.44771525 213,1 C213,1.51283584 212.61396,1.93550716 212.116621,1.99327227 L212,2 L207,2 C206.447715,2 206,1.55228475 206,1 C206,0.487164161 206.38604,0.0644928393 206.883379,0.00672773133 L207,0 L212,0 Z M223,0 C223.552285,0 224,0.44771525 224,1 C224,1.51283584 223.61396,1.93550716 223.116621,1.99327227 L223,2 L218,2 C217.447715,2 217,1.55228475 217,1 C217,0.487164161 217.38604,0.0644928393 217.883379,0.00672773133 L218,0 L223,0 Z M234,0 C234.552285,0 235,0.44771525 235,1 C235,1.51283584 234.61396,1.93550716 234.116621,1.99327227 L234,2 L229,2 C228.447715,2 228,1.55228475 228,1 C228,0.487164161 228.38604,0.0644928393 228.883379,0.00672773133 L229,0 L234,0 Z M245,0 C245.552285,0 246,0.44771525 246,1 C246,1.51283584 245.61396,1.93550716 245.116621,1.99327227 L245,2 L240,2 C239.447715,2 239,1.55228475 239,1 C239,0.487164161 239.38604,0.0644928393 239.883379,0.00672773133 L240,0 L245,0 Z M256,0 C256.552285,0 257,0.44771525 257,1 C257,1.51283584 256.61396,1.93550716 256.116621,1.99327227 L256,2 L251,2 C250.447715,2 250,1.55228475 250,1 C250,0.487164161 250.38604,0.0644928393 250.883379,0.00672773133 L251,0 L256,0 Z M267,0 C267.552285,0 268,0.44771525 268,1 C268,1.51283584 267.61396,1.93550716 267.116621,1.99327227 L267,2 L262,2 C261.447715,2 261,1.55228475 261,1 C261,0.487164161 261.38604,0.0644928393 261.883379,0.00672773133 L262,0 L267,0 Z M278,0 C278.552285,0 279,0.44771525 279,1 C279,1.51283584 278.61396,1.93550716 278.116621,1.99327227 L278,2 L273,2 C272.447715,2 272,1.55228475 272,1 C272,0.487164161 272.38604,0.0644928393 272.883379,0.00672773133 L273,0 L278,0 Z M289,0 C289.552285,0 290,0.44771525 290,1 C290,1.51283584 289.61396,1.93550716 289.116621,1.99327227 L289,2 L284,2 C283.447715,2 283,1.55228475 283,1 C283,0.487164161 283.38604,0.0644928393 283.883379,0.00672773133 L284,0 L289,0 Z M300,0 C300.552285,0 301,0.44771525 301,1 C301,1.51283584 300.61396,1.93550716 300.116621,1.99327227 L300,2 L295,2 C294.447715,2 294,1.55228475 294,1 C294,0.487164161 294.38604,0.0644928393 294.883379,0.00672773133 L295,0 L300,0 Z M311,0 C311.552285,0 312,0.44771525 312,1 C312,1.51283584 311.61396,1.93550716 311.116621,1.99327227 L311,2 L306,2 C305.447715,2 305,1.55228475 305,1 C305,0.487164161 305.38604,0.0644928393 305.883379,0.00672773133 L306,0 L311,0 Z M322,0 C322.552285,0 323,0.44771525 323,1 C323,1.51283584 322.61396,1.93550716 322.116621,1.99327227 L322,2 L317,2 C316.447715,2 316,1.55228475 316,1 C316,0.487164161 316.38604,0.0644928393 316.883379,0.00672773133 L317,0 L322,0 Z M333,0 C333.552285,0 334,0.44771525 334,1 C334,1.51283584 333.61396,1.93550716 333.116621,1.99327227 L333,2 L328,2 C327.447715,2 327,1.55228475 327,1 C327,0.487164161 327.38604,0.0644928393 327.883379,0.00672773133 L328,0 L333,0 Z M344,0 C344.552285,0 345,0.44771525 345,1 C345,1.51283584 344.61396,1.93550716 344.116621,1.99327227 L344,2 L339,2 C338.447715,2 338,1.55228475 338,1 C338,0.487164161 338.38604,0.0644928393 338.883379,0.00672773133 L339,0 L344,0 Z M355,0 C355.552285,0 356,0.44771525 356,1 C356,1.51283584 355.61396,1.93550716 355.116621,1.99327227 L355,2 L350,2 C349.447715,2 349,1.55228475 349,1 C349,0.487164161 349.38604,0.0644928393 349.883379,0.00672773133 L350,0 L355,0 Z M366,0 C366.552285,0 367,0.44771525 367,1 C367,1.51283584 366.61396,1.93550716 366.116621,1.99327227 L366,2 L361,2 C360.447715,2 360,1.55228475 360,1 C360,0.487164161 360.38604,0.0644928393 360.883379,0.00672773133 L361,0 L366,0 Z M377,0 C377.552285,0 378,0.44771525 378,1 C378,1.51283584 377.61396,1.93550716 377.116621,1.99327227 L377,2 L372,2 C371.447715,2 371,1.55228475 371,1 C371,0.487164161 371.38604,0.0644928393 371.883379,0.00672773133 L372,0 L377,0 Z M388,0 C388.552285,0 389,0.44771525 389,1 C389,1.51283584 388.61396,1.93550716 388.116621,1.99327227 L388,2 L383,2 C382.447715,2 382,1.55228475 382,1 C382,0.487164161 382.38604,0.0644928393 382.883379,0.00672773133 L383,0 L388,0 Z M399,0 C399.552285,0 400,0.44771525 400,1 C400,1.51283584 399.61396,1.93550716 399.116621,1.99327227 L399,2 L394,2 C393.447715,2 393,1.55228475 393,1 C393,0.487164161 393.38604,0.0644928393 393.883379,0.00672773133 L394,0 L399,0 Z" fill="#D22A80" fill-rule="nonzero"></path>
                <path id="Path-2" d="M708,-6 C708.512836,-6 708.935507,-5.61395981 708.993272,-5.11662113 L709,-5 L709,0 L713,0 C713.552285,0 714,0.44771525 714,1 C714,1.51283584 713.61396,1.93550716 713.116621,1.99327227 L713,2 L709,2 L709,7 C709,7.55228475 708.552285,8 708,8 C707.487164,8 707.064493,7.61395981 707.006728,7.11662113 L707,7 L707,-5 C707,-5.55228475 707.447715,-6 708,-6 Z M775.612893,-6 C775.742541,-6 775.870408,-5.96981468 775.986368,-5.91183453 L775.986368,-5.91183453 L788.315954,0.252958649 C788.728483,0.459223163 788.895694,0.960854444 788.689429,1.37338347 C788.608621,1.53500118 788.477572,1.66604956 788.315954,1.74685841 L788.315954,1.74685841 L775.986368,7.91165159 C775.573839,8.1179161 775.072208,7.95070568 774.865943,7.53817665 C774.807963,7.42221634 774.777778,7.29434927 774.777778,7.16470171 L774.777778,7.16470171 L774.777,2 L774,2 C773.447715,2 773,1.55228475 773,1 C773,0.487164161 773.38604,0.0644928393 773.883379,0.00672773133 L774,0 L774.777,0 L774.777778,-5.16488464 C774.777778,-5.59062754 775.096362,-5.94196113 775.508138,-5.99349327 Z M724,0 C724.552285,0 725,0.44771525 725,1 C725,1.51283584 724.61396,1.93550716 724.116621,1.99327227 L724,2 L719,2 C718.447715,2 718,1.55228475 718,1 C718,0.487164161 718.38604,0.0644928393 718.883379,0.00672773133 L719,0 L724,0 Z M735,0 C735.552285,0 736,0.44771525 736,1 C736,1.51283584 735.61396,1.93550716 735.116621,1.99327227 L735,2 L730,2 C729.447715,2 729,1.55228475 729,1 C729,0.487164161 729.38604,0.0644928393 729.883379,0.00672773133 L730,0 L735,0 Z M746,0 C746.552285,0 747,0.44771525 747,1 C747,1.51283584 746.61396,1.93550716 746.116621,1.99327227 L746,2 L741,2 C740.447715,2 740,1.55228475 740,1 C740,0.487164161 740.38604,0.0644928393 740.883379,0.00672773133 L741,0 L746,0 Z M757,0 C757.552285,0 758,0.44771525 758,1 C758,1.51283584 757.61396,1.93550716 757.116621,1.99327227 L757,2 L752,2 C751.447715,2 751,1.55228475 751,1 C751,0.487164161 751.38604,0.0644928393 751.883379,0.00672773133 L752,0 L757,0 Z M768,0 C768.552285,0 769,0.44771525 769,1 C769,1.51283584 768.61396,1.93550716 768.116621,1.99327227 L768,2 L763,2 C762.447715,2 762,1.55228475 762,1 C762,0.487164161 762.38604,0.0644928393 762.883379,0.00672773133 L763,0 L768,0 Z" fill="#D22A80" fill-rule="nonzero"></path>
                <g id="Group-4" transform="translate(152.000000, 74.000000)" stroke="#E4E4E4">
                    <g id="Group-3">
                        <rect id="Rectangle" x="0" y="0" width="86" height="31"></rect>
                        <rect id="Rectangle" x="86" y="0" width="93" height="31"></rect>
                        <rect id="Rectangle" x="179" y="0" width="93" height="31"></rect>
                        <rect id="Rectangle" x="272" y="0" width="92" height="31"></rect>
                        <rect id="Rectangle" x="364" y="0" width="92" height="31"></rect>
                        <rect id="Rectangle" x="456" y="0" width="93" height="31"></rect>
                        <rect id="Rectangle" x="549" y="0" width="93" height="31"></rect>
                    </g>
                    <g id="Group-3" transform="translate(0.000000, 31.000000)">
                        <rect id="Rectangle" x="0" y="0" width="86" height="31"></rect>
                        <rect id="Rectangle" x="86" y="0" width="93" height="31"></rect>
                        <rect id="Rectangle" x="179" y="0" width="93" height="31"></rect>
                        <rect id="Rectangle" x="272" y="0" width="92" height="31"></rect>
                        <rect id="Rectangle" x="364" y="0" width="92" height="31"></rect>
                        <rect id="Rectangle" x="456" y="0" width="93" height="31"></rect>
                        <rect id="Rectangle" x="549" y="0" width="93" height="31"></rect>
                    </g>
                    <g id="Group-3" transform="translate(0.000000, 62.000000)">
                        <rect id="Rectangle" x="0" y="0" width="86" height="31"></rect>
                        <rect id="Rectangle" x="86" y="0" width="93" height="31"></rect>
                        <rect id="Rectangle" x="179" y="0" width="93" height="31"></rect>
                        <rect id="Rectangle" x="272" y="0" width="92" height="31"></rect>
                        <rect id="Rectangle" x="364" y="0" width="92" height="31"></rect>
                        <rect id="Rectangle" x="456" y="0" width="93" height="31"></rect>
                        <rect id="Rectangle" x="549" y="0" width="93" height="31"></rect>
                    </g>
                    <g id="Group-3" transform="translate(0.000000, 93.000000)">
                        <rect id="Rectangle" x="0" y="0" width="86" height="31"></rect>
                        <rect id="Rectangle" x="86" y="0" width="93" height="31"></rect>
                        <rect id="Rectangle" x="179" y="0" width="93" height="31"></rect>
                        <rect id="Rectangle" x="272" y="0" width="92" height="31"></rect>
                        <rect id="Rectangle" x="364" y="0" width="92" height="31"></rect>
                        <rect id="Rectangle" x="456" y="0" width="93" height="31"></rect>
                        <rect id="Rectangle" x="549" y="0" width="93" height="31"></rect>
                    </g>
                    <g id="Group-3" transform="translate(0.000000, 124.000000)">
                        <rect id="Rectangle" x="0" y="0" width="86" height="31"></rect>
                        <rect id="Rectangle" x="86" y="0" width="93" height="31"></rect>
                        <rect id="Rectangle" x="179" y="0" width="93" height="31"></rect>
                        <rect id="Rectangle" x="272" y="0" width="92" height="31"></rect>
                        <rect id="Rectangle" x="364" y="0" width="92" height="31"></rect>
                        <rect id="Rectangle" x="456" y="0" width="93" height="31"></rect>
                        <rect id="Rectangle" x="549" y="0" width="93" height="31"></rect>
                    </g>
                    <g id="Group-3" transform="translate(0.000000, 155.000000)">
                        <rect id="Rectangle" x="0" y="0" width="86" height="31"></rect>
                        <rect id="Rectangle" x="86" y="0" width="93" height="31"></rect>
                        <rect id="Rectangle" x="179" y="0" width="93" height="31"></rect>
                        <rect id="Rectangle" x="272" y="0" width="92" height="31"></rect>
                        <rect id="Rectangle" x="364" y="0" width="92" height="31"></rect>
                        <rect id="Rectangle" x="456" y="0" width="93" height="31"></rect>
                        <rect id="Rectangle" x="549" y="0" width="93" height="31"></rect>
                    </g>
                </g>
                <g id="Group-5" transform="translate(184.000000, 80.000000)" fill="#42A343" font-family="ZapfDingbatsITC, Zapf Dingbats" font-size="18" font-weight="normal" letter-spacing="0.22">
                    <text id="✔">
                        <tspan x="0.274277344" y="15">✔</tspan>
                    </text>
                    <text id="✔">
                        <tspan x="278.274277" y="15">✔</tspan>
                    </text>
                    <text id="✔">
                        <tspan x="185.274277" y="140">✔</tspan>
                    </text>
                    <text id="✔">
                        <tspan x="185.274277" y="172">✔</tspan>
                    </text>
                    <text id="✔">
                        <tspan x="463.274277" y="76">✔</tspan>
                    </text>
                    <text id="✔">
                        <tspan x="463.274277" y="108">✔</tspan>
                    </text>
                    <text id="✔">
                        <tspan x="463.274277" y="140">✔</tspan>
                    </text>
                    <text id="✔">
                        <tspan x="463.274277" y="172">✔</tspan>
                    </text>
                    <text id="✔">
                        <tspan x="556.274277" y="140">✔</tspan>
                    </text>
                    <text id="✔">
                        <tspan x="556.274277" y="172">✔</tspan>
                    </text>
                    <text id="✔">
                        <tspan x="0.274277344" y="47">✔</tspan>
                    </text>
                    <text id="✔">
                        <tspan x="0.274277344" y="79">✔</tspan>
                    </text>
                    <text id="✔">
                        <tspan x="0.274277344" y="111">✔</tspan>
                    </text>
                </g>
                <rect id="Rectangle" fill-opacity="0.3" fill="#F06464" x="238" y="74" width="93" height="186"></rect>
                <rect id="Rectangle" fill-opacity="0.3" fill="#F06464" x="516" y="74" width="93" height="186"></rect>
            </g>
        </g>
    </g>
</svg>