<?xml version="1.0" encoding="UTF-8"?>
<svg width="459px" height="292px" viewBox="0 0 459 292" version="1.1" xmlns="http://www.w3.org/2000/svg" xmlns:xlink="http://www.w3.org/1999/xlink">
    <!-- Generator: Sketch 63 (92445) - https://sketch.com -->
    <title>Group 9</title>
    <desc>Created with Sketch.</desc>
    <defs>
        <linearGradient x1="100%" y1="48.8755673%" x2="0%" y2="48.8755673%" id="linearGradient-1">
            <stop stop-color="#FAF0FA" stop-opacity="0" offset="0%"></stop>
            <stop stop-color="#F9ECF9" stop-opacity="0.796028191" offset="14.794844%"></stop>
            <stop stop-color="#F4DEF4" stop-opacity="0.924314283" offset="75.4804604%"></stop>
            <stop stop-color="#F3DCF3" stop-opacity="0" offset="100%"></stop>
        </linearGradient>
        <linearGradient x1="100%" y1="48.8755673%" x2="0%" y2="48.8755673%" id="linearGradient-2">
            <stop stop-color="#FAF0FA" stop-opacity="0" offset="0%"></stop>
            <stop stop-color="#F9ECF9" stop-opacity="0.796028191" offset="14.794844%"></stop>
            <stop stop-color="#F4DEF4" stop-opacity="0.924314283" offset="75.4804604%"></stop>
            <stop stop-color="#F3DCF3" stop-opacity="0" offset="100%"></stop>
        </linearGradient>
    </defs>
    <g id="Page-1" stroke="none" stroke-width="1" fill="none" fill-rule="evenodd">
        <g id="Slide-9" transform="translate(-193.000000, -152.000000)">
            <g id="Group-9" transform="translate(193.000000, 152.000000)">
                <path d="M66,46.9380268 C89.7343613,31.3525442 103.144537,31.4778277 133.48853,4.70969329 C140.606989,-1.56989776 146.110812,-1.56989776 150,4.70969329 L150,153.178003 C146.157969,159.369615 140.654146,159.369615 133.48853,153.178003 C103.074905,126.898422 89.6773875,126.510468 66.0581365,110.368395 L66,46.9380268 Z" id="Rectangle" fill="url(#linearGradient-1)" opacity="0.499744234"></path>
                <path d="M66,200.863823 C89.7343613,188.168364 103.144537,191.979025 133.48853,166.465909 C140.369896,160.680082 145.873719,160.680082 150,166.465909 L150,287.403671 C145.936396,293.137967 140.432573,293.137967 133.48853,287.403671 C103.074905,262.288516 89.6773875,265.68111 66.0581365,252.532269 L66,200.863823 Z" id="Rectangle" fill="url(#linearGradient-2)" opacity="0.499744234"></path>
                <g id="Group-8" transform="translate(120.000000, 3.395001)">
                    <g id="Group-6" transform="translate(26.000000, 164.000000)">
                        <g id="Group-5">
                            <text id="16.6ms" font-family="iAWriterQuattroS-Bold, iA Writer Quattro S" font-size="15" font-weight="bold" letter-spacing="0.236842" fill="#F0647D">
                                <tspan x="38.539474" y="15">16.6ms</tspan>
                            </text>
                            <path id="Path-2" d="M2,23 C2.51283584,23 2.93550716,23.3860402 2.99327227,23.8833789 L3,24 L3,29 L7,29 C7.55228475,29 8,29.4477153 8,30 C8,30.5128358 7.61395981,30.9355072 7.11662113,30.9932723 L7,31 L3,31 L3,36 C3,36.5522847 2.55228475,37 2,37 C1.48716416,37 1.06449284,36.6139598 1.00672773,36.1166211 L1,36 L1,24 C1,23.4477153 1.44771525,23 2,23 Z M124.612893,23 C124.742541,23 124.870408,23.0301853 124.986368,23.0881655 L124.986368,23.0881655 L137.315954,29.2529586 C137.728483,29.4592232 137.895694,29.9608544 137.689429,30.3733835 C137.608621,30.5350012 137.477572,30.6660496 137.315954,30.7468584 L137.315954,30.7468584 L124.986368,36.9116516 C124.573839,37.1179161 124.072208,36.9507057 123.865943,36.5381766 C123.807963,36.4222163 123.777778,36.2943493 123.777778,36.1647017 L123.777778,36.1647017 L123.777,31 L123,31 C122.447715,31 122,30.5522847 122,30 C122,29.4871642 122.38604,29.0644928 122.883379,29.0067277 L123,29 L123.777,29 L123.777778,23.8351154 C123.777778,23.4093725 124.096362,23.0580389 124.508138,23.0065067 Z M18,29 C18.5522847,29 19,29.4477153 19,30 C19,30.5128358 18.6139598,30.9355072 18.1166211,30.9932723 L18,31 L13,31 C12.4477153,31 12,30.5522847 12,30 C12,29.4871642 12.3860402,29.0644928 12.8833789,29.0067277 L13,29 L18,29 Z M29,29 C29.5522847,29 30,29.4477153 30,30 C30,30.5128358 29.6139598,30.9355072 29.1166211,30.9932723 L29,31 L24,31 C23.4477153,31 23,30.5522847 23,30 C23,29.4871642 23.3860402,29.0644928 23.8833789,29.0067277 L24,29 L29,29 Z M40,29 C40.5522847,29 41,29.4477153 41,30 C41,30.5128358 40.6139598,30.9355072 40.1166211,30.9932723 L40,31 L35,31 C34.4477153,31 34,30.5522847 34,30 C34,29.4871642 34.3860402,29.0644928 34.8833789,29.0067277 L35,29 L40,29 Z M51,29 C51.5522847,29 52,29.4477153 52,30 C52,30.5128358 51.6139598,30.9355072 51.1166211,30.9932723 L51,31 L46,31 C45.4477153,31 45,30.5522847 45,30 C45,29.4871642 45.3860402,29.0644928 45.8833789,29.0067277 L46,29 L51,29 Z M62,29 C62.5522847,29 63,29.4477153 63,30 C63,30.5128358 62.6139598,30.9355072 62.1166211,30.9932723 L62,31 L57,31 C56.4477153,31 56,30.5522847 56,30 C56,29.4871642 56.3860402,29.0644928 56.8833789,29.0067277 L57,29 L62,29 Z M73,29 C73.5522847,29 74,29.4477153 74,30 C74,30.5128358 73.6139598,30.9355072 73.1166211,30.9932723 L73,31 L68,31 C67.4477153,31 67,30.5522847 67,30 C67,29.4871642 67.3860402,29.0644928 67.8833789,29.0067277 L68,29 L73,29 Z M84,29 C84.5522847,29 85,29.4477153 85,30 C85,30.5128358 84.6139598,30.9355072 84.1166211,30.9932723 L84,31 L79,31 C78.4477153,31 78,30.5522847 78,30 C78,29.4871642 78.3860402,29.0644928 78.8833789,29.0067277 L79,29 L84,29 Z M95,29 C95.5522847,29 96,29.4477153 96,30 C96,30.5128358 95.6139598,30.9355072 95.1166211,30.9932723 L95,31 L90,31 C89.4477153,31 89,30.5522847 89,30 C89,29.4871642 89.3860402,29.0644928 89.8833789,29.0067277 L90,29 L95,29 Z M106,29 C106.552285,29 107,29.4477153 107,30 C107,30.5128358 106.61396,30.9355072 106.116621,30.9932723 L106,31 L101,31 C100.447715,31 100,30.5522847 100,30 C100,29.4871642 100.38604,29.0644928 100.883379,29.0067277 L101,29 L106,29 Z M117,29 C117.552285,29 118,29.4477153 118,30 C118,30.5128358 117.61396,30.9355072 117.116621,30.9932723 L117,31 L112,31 C111.447715,31 111,30.5522847 111,30 C111,29.4871642 111.38604,29.0644928 111.883379,29.0067277 L112,29 L117,29 Z" fill="#D22A80" fill-rule="nonzero"></path>
                        </g>
                        <g id="Group" transform="translate(142.000000, 0.000000)">
                            <text id="16.6ms" font-family="iAWriterQuattroS-Bold, iA Writer Quattro S" font-size="15" font-weight="bold" letter-spacing="0.236842" fill="#F0647D">
                                <tspan x="38.539474" y="15">16.6ms</tspan>
                            </text>
                            <path id="Path-2" d="M2,23 C2.51283584,23 2.93550716,23.3860402 2.99327227,23.8833789 L3,24 L3,29 L7,29 C7.55228475,29 8,29.4477153 8,30 C8,30.5128358 7.61395981,30.9355072 7.11662113,30.9932723 L7,31 L3,31 L3,36 C3,36.5522847 2.55228475,37 2,37 C1.48716416,37 1.06449284,36.6139598 1.00672773,36.1166211 L1,36 L1,24 C1,23.4477153 1.44771525,23 2,23 Z M124.612893,23 C124.742541,23 124.870408,23.0301853 124.986368,23.0881655 L124.986368,23.0881655 L137.315954,29.2529586 C137.728483,29.4592232 137.895694,29.9608544 137.689429,30.3733835 C137.608621,30.5350012 137.477572,30.6660496 137.315954,30.7468584 L137.315954,30.7468584 L124.986368,36.9116516 C124.573839,37.1179161 124.072208,36.9507057 123.865943,36.5381766 C123.807963,36.4222163 123.777778,36.2943493 123.777778,36.1647017 L123.777778,36.1647017 L123.777,31 L123,31 C122.447715,31 122,30.5522847 122,30 C122,29.4871642 122.38604,29.0644928 122.883379,29.0067277 L123,29 L123.777,29 L123.777778,23.8351154 C123.777778,23.4093725 124.096362,23.0580389 124.508138,23.0065067 Z M18,29 C18.5522847,29 19,29.4477153 19,30 C19,30.5128358 18.6139598,30.9355072 18.1166211,30.9932723 L18,31 L13,31 C12.4477153,31 12,30.5522847 12,30 C12,29.4871642 12.3860402,29.0644928 12.8833789,29.0067277 L13,29 L18,29 Z M29,29 C29.5522847,29 30,29.4477153 30,30 C30,30.5128358 29.6139598,30.9355072 29.1166211,30.9932723 L29,31 L24,31 C23.4477153,31 23,30.5522847 23,30 C23,29.4871642 23.3860402,29.0644928 23.8833789,29.0067277 L24,29 L29,29 Z M40,29 C40.5522847,29 41,29.4477153 41,30 C41,30.5128358 40.6139598,30.9355072 40.1166211,30.9932723 L40,31 L35,31 C34.4477153,31 34,30.5522847 34,30 C34,29.4871642 34.3860402,29.0644928 34.8833789,29.0067277 L35,29 L40,29 Z M51,29 C51.5522847,29 52,29.4477153 52,30 C52,30.5128358 51.6139598,30.9355072 51.1166211,30.9932723 L51,31 L46,31 C45.4477153,31 45,30.5522847 45,30 C45,29.4871642 45.3860402,29.0644928 45.8833789,29.0067277 L46,29 L51,29 Z M62,29 C62.5522847,29 63,29.4477153 63,30 C63,30.5128358 62.6139598,30.9355072 62.1166211,30.9932723 L62,31 L57,31 C56.4477153,31 56,30.5522847 56,30 C56,29.4871642 56.3860402,29.0644928 56.8833789,29.0067277 L57,29 L62,29 Z M73,29 C73.5522847,29 74,29.4477153 74,30 C74,30.5128358 73.6139598,30.9355072 73.1166211,30.9932723 L73,31 L68,31 C67.4477153,31 67,30.5522847 67,30 C67,29.4871642 67.3860402,29.0644928 67.8833789,29.0067277 L68,29 L73,29 Z M84,29 C84.5522847,29 85,29.4477153 85,30 C85,30.5128358 84.6139598,30.9355072 84.1166211,30.9932723 L84,31 L79,31 C78.4477153,31 78,30.5522847 78,30 C78,29.4871642 78.3860402,29.0644928 78.8833789,29.0067277 L79,29 L84,29 Z M95,29 C95.5522847,29 96,29.4477153 96,30 C96,30.5128358 95.6139598,30.9355072 95.1166211,30.9932723 L95,31 L90,31 C89.4477153,31 89,30.5522847 89,30 C89,29.4871642 89.3860402,29.0644928 89.8833789,29.0067277 L90,29 L95,29 Z M106,29 C106.552285,29 107,29.4477153 107,30 C107,30.5128358 106.61396,30.9355072 106.116621,30.9932723 L106,31 L101,31 C100.447715,31 100,30.5522847 100,30 C100,29.4871642 100.38604,29.0644928 100.883379,29.0067277 L101,29 L106,29 Z M117,29 C117.552285,29 118,29.4477153 118,30 C118,30.5128358 117.61396,30.9355072 117.116621,30.9932723 L117,31 L112,31 C111.447715,31 111,30.5522847 111,30 C111,29.4871642 111.38604,29.0644928 111.883379,29.0067277 L112,29 L117,29 Z" fill="#D22A80" fill-rule="nonzero"></path>
                        </g>
                        <g id="Group-3" transform="translate(0.000000, 41.000000)" fill="#000000" font-family="NeueHaasUnicaW1G-Medium, Neue Haas Unica W1G" font-size="15" font-weight="400" letter-spacing="0.236842">
                            <text id="Idle">
                                <tspan x="0" y="59">Idle</tspan>
                            </text>
                            <text id="Normal">
                                <tspan x="0" y="17">Normal</tspan>
                            </text>
                            <text id="Low">
                                <tspan x="0" y="38">Low</tspan>
                            </text>
                        </g>
                    </g>
                    <g id="Group-2" transform="translate(26.000000, 75.000000)">
                        <text id="1-tick" font-family="iAWriterQuattroS-Bold, iA Writer Quattro S" font-size="15" font-weight="bold" letter-spacing="0.236842" fill="#F0647D">
                            <tspan x="11.289474" y="15">1 tick</tspan>
                        </text>
                        <text id="User-Blocking" font-family="NeueHaasUnicaW1G-Medium, Neue Haas Unica W1G" font-size="15" font-weight="400" letter-spacing="0.236842" fill="#000000">
                            <tspan x="0" y="56">User Blocking</tspan>
                        </text>
                        <path id="Path-2" d="M0,22 C0.512835839,22 0.935507161,22.3860402 0.993272269,22.8833789 L1,23 L1,28 L5,28 C5.55228475,28 6,28.4477153 6,29 C6,29.5128358 5.61395981,29.9355072 5.11662113,29.9932723 L5,30 L1,30 L1,35 C1,35.5522847 0.55228475,36 0,36 C-0.512835839,36 -0.935507161,35.6139598 -0.993272269,35.1166211 L-1,35 L-1,23 C-1,22.4477153 -0.55228475,22 0,22 Z M63.6128931,22 C63.7425407,22 63.8704078,22.0301853 63.9863681,22.0881655 L63.9863681,22.0881655 L76.3159544,28.2529586 C76.7284835,28.4592232 76.8956939,28.9608544 76.6894294,29.3733835 C76.6086205,29.5350012 76.4775721,29.6660496 76.3159544,29.7468584 L76.3159544,29.7468584 L63.9863681,35.9116516 C63.573839,36.1179161 63.0722078,35.9507057 62.8659433,35.5381766 C62.8079631,35.4222163 62.7777778,35.2943493 62.7777778,35.1647017 L62.7777778,35.1647017 L62.7777778,22.8351154 C62.7777778,22.3738939 63.1516717,22 63.6128931,22 Z M16,28 C16.5522847,28 17,28.4477153 17,29 C17,29.5128358 16.6139598,29.9355072 16.1166211,29.9932723 L16,30 L11,30 C10.4477153,30 10,29.5522847 10,29 C10,28.4871642 10.3860402,28.0644928 10.8833789,28.0067277 L11,28 L16,28 Z M27,28 C27.5522847,28 28,28.4477153 28,29 C28,29.5128358 27.6139598,29.9355072 27.1166211,29.9932723 L27,30 L22,30 C21.4477153,30 21,29.5522847 21,29 C21,28.4871642 21.3860402,28.0644928 21.8833789,28.0067277 L22,28 L27,28 Z M38,28 C38.5522847,28 39,28.4477153 39,29 C39,29.5128358 38.6139598,29.9355072 38.1166211,29.9932723 L38,30 L33,30 C32.4477153,30 32,29.5522847 32,29 C32,28.4871642 32.3860402,28.0644928 32.8833789,28.0067277 L33,28 L38,28 Z M49,28 C49.5522847,28 50,28.4477153 50,29 C50,29.5128358 49.6139598,29.9355072 49.1166211,29.9932723 L49,30 L44,30 C43.4477153,30 43,29.5522847 43,29 C43,28.4871642 43.3860402,28.0644928 43.8833789,28.0067277 L44,28 L49,28 Z M60,28 C60.5522847,28 61,28.4477153 61,29 C61,29.5128358 60.6139598,29.9355072 60.1166211,29.9932723 L60,30 L55,30 C54.4477153,30 54,29.5522847 54,29 C54,28.4871642 54.3860402,28.0644928 54.8833789,28.0067277 L55,28 L60,28 Z" fill="#D22A80" fill-rule="nonzero"></path>
                    </g>
                    <g id="Group-4" transform="translate(26.000000, 22.000000)">
                        <text id="Immediate" font-family="NeueHaasUnicaW1G-Medium, Neue Haas Unica W1G" font-size="15" font-weight="400" letter-spacing="0.236842" fill="#000000">
                            <tspan x="0" y="24">Immediate</tspan>
                        </text>
                        <path id="Path-2" d="M7.61289313,-6 C7.7425407,-6 7.87040777,-5.96981468 7.98636808,-5.91183453 L7.98636808,-5.91183453 L20.3159544,0.252958649 C20.7284835,0.459223163 20.8956939,0.960854444 20.6894294,1.37338347 C20.6086205,1.53500118 20.4775721,1.66604956 20.3159544,1.74685841 L20.3159544,1.74685841 L7.98636808,7.91165159 C7.57383905,8.1179161 7.07220777,7.95070568 6.86594325,7.53817665 C6.8079631,7.42221634 6.77777778,7.29434927 6.77777778,7.16470171 L6.77777778,7.16470171 L6.777,2 L3,2 L3,7 C3,7.55228475 2.55228475,8 2,8 C1.48716416,8 1.06449284,7.61395981 1.00672773,7.11662113 L1,7 L1,-5 C1,-5.55228475 1.44771525,-6 2,-6 C2.51283584,-6 2.93550716,-5.61395981 2.99327227,-5.11662113 L3,-5 L3,0 L6.777,0 L6.77777778,-5.16488464 C6.77777778,-5.59062754 7.09636191,-5.94196113 7.50813804,-5.99349327 Z" fill="#D22A80" fill-rule="nonzero"></path>
                    </g>
                    <g id="Group-7" stroke="#FAE0D0" stroke-width="3">
                        <rect id="Rectangle" x="0" y="0" width="337" height="65"></rect>
                        <rect id="Rectangle" x="0" y="65" width="337" height="90"></rect>
                        <rect id="Rectangle" x="0" y="155" width="337" height="130"></rect>
                    </g>
                </g>
                <text id="Concurrent-Mode" font-family="NeueHaasUnicaW1G-Medium, Neue Haas Unica W1G" font-size="17" font-weight="400" line-spacing="20" letter-spacing="0.268420933" fill="#000000">
                    <tspan x="0" y="220.395001">Concurrent </tspan>
                    <tspan x="0" y="240.395001">Mode</tspan>
                </text>
                <text id="Blocking-Mode" font-family="NeueHaasUnicaW1G-Medium, Neue Haas Unica W1G" font-size="17" font-weight="400" line-spacing="20" letter-spacing="0.268420933" fill="#000000">
                    <tspan x="0" y="72.3950015">Blocking </tspan>
                    <tspan x="0" y="92.3950015">Mode</tspan>
                </text>
            </g>
        </g>
    </g>
</svg>